ISO-10303-21;
HEADER;
/* Generated by software containing ST-Developer
 * from STEP Tools, Inc. (www.steptools.com) 
 */

FILE_DESCRIPTION(
/* description */ (''),
/* implementation_level */ '2;1');

FILE_NAME(
/* name */ 'JE_RingBox.step',
/* time_stamp */ '2025-07-28T14:06:39-05:00',
/* author */ (''),
/* organization */ (''),
/* preprocessor_version */ 'ST-DEVELOPER v20.1',
/* originating_system */ 'Autodesk Translation Framework v14.10.0.0',
/* authorisation */ '');

FILE_SCHEMA (('AUTOMOTIVE_DESIGN { 1 0 10303 214 3 1 1 }'));
ENDSEC;

DATA;
#10=MECHANICAL_DESIGN_GEOMETRIC_PRESENTATION_REPRESENTATION('',(#23,#24),
#1605);
#11=ITEM_DEFINED_TRANSFORMATION($,$,#987,#1065);
#12=ITEM_DEFINED_TRANSFORMATION($,$,#1026,#1066);
#13=(
REPRESENTATION_RELATIONSHIP($,$,#1622,#1621)
REPRESENTATION_RELATIONSHIP_WITH_TRANSFORMATION(#11)
SHAPE_REPRESENTATION_RELATIONSHIP()
);
#14=(
REPRESENTATION_RELATIONSHIP($,$,#1623,#1621)
REPRESENTATION_RELATIONSHIP_WITH_TRANSFORMATION(#12)
SHAPE_REPRESENTATION_RELATIONSHIP()
);
#15=CONTEXT_DEPENDENT_SHAPE_REPRESENTATION(#13,#1619);
#16=CONTEXT_DEPENDENT_SHAPE_REPRESENTATION(#14,#1620);
#17=NEXT_ASSEMBLY_USAGE_OCCURRENCE('RingBox_Top:1','RingBox_Top:1',
'RingBox_Top:1',#1625,#1626,'RingBox_Top:1');
#18=NEXT_ASSEMBLY_USAGE_OCCURRENCE('RingBox_Bottom:1',
'RingBox_Bottom:1','RingBox_Bottom:1',#1625,#1627,'RingBox_Bottom:1');
#19=SHAPE_REPRESENTATION_RELATIONSHIP('SRR','None',#1622,#21);
#20=SHAPE_REPRESENTATION_RELATIONSHIP('SRR','None',#1623,#22);
#21=ADVANCED_BREP_SHAPE_REPRESENTATION('',(#25),#1603);
#22=ADVANCED_BREP_SHAPE_REPRESENTATION('',(#26),#1604);
#23=STYLED_ITEM('',(#1640),#25);
#24=STYLED_ITEM('',(#1640),#26);
#25=MANIFOLD_SOLID_BREP('Body1',#961);
#26=MANIFOLD_SOLID_BREP('Body1',#962);
#27=FACE_BOUND('',#174,.T.);
#28=FACE_BOUND('',#175,.T.);
#29=FACE_BOUND('',#176,.T.);
#30=FACE_BOUND('',#205,.T.);
#31=FACE_BOUND('',#206,.T.);
#32=FACE_BOUND('',#207,.T.);
#33=PLANE('',#991);
#34=PLANE('',#995);
#35=PLANE('',#999);
#36=PLANE('',#1000);
#37=PLANE('',#1001);
#38=PLANE('',#1002);
#39=PLANE('',#1003);
#40=PLANE('',#1004);
#41=PLANE('',#1005);
#42=PLANE('',#1006);
#43=PLANE('',#1007);
#44=PLANE('',#1008);
#45=PLANE('',#1009);
#46=PLANE('',#1010);
#47=PLANE('',#1011);
#48=PLANE('',#1012);
#49=PLANE('',#1013);
#50=PLANE('',#1014);
#51=PLANE('',#1015);
#52=PLANE('',#1016);
#53=PLANE('',#1017);
#54=PLANE('',#1018);
#55=PLANE('',#1019);
#56=PLANE('',#1020);
#57=PLANE('',#1021);
#58=PLANE('',#1022);
#59=PLANE('',#1023);
#60=PLANE('',#1024);
#61=PLANE('',#1025);
#62=PLANE('',#1030);
#63=PLANE('',#1031);
#64=PLANE('',#1032);
#65=PLANE('',#1033);
#66=PLANE('',#1034);
#67=PLANE('',#1035);
#68=PLANE('',#1036);
#69=PLANE('',#1037);
#70=PLANE('',#1038);
#71=PLANE('',#1039);
#72=PLANE('',#1040);
#73=PLANE('',#1041);
#74=PLANE('',#1042);
#75=PLANE('',#1043);
#76=PLANE('',#1046);
#77=PLANE('',#1047);
#78=PLANE('',#1048);
#79=PLANE('',#1049);
#80=PLANE('',#1050);
#81=PLANE('',#1051);
#82=PLANE('',#1052);
#83=PLANE('',#1053);
#84=PLANE('',#1054);
#85=PLANE('',#1055);
#86=PLANE('',#1056);
#87=PLANE('',#1057);
#88=PLANE('',#1058);
#89=PLANE('',#1061);
#90=PLANE('',#1064);
#91=FACE_OUTER_BOUND('',#155,.T.);
#92=FACE_OUTER_BOUND('',#156,.T.);
#93=FACE_OUTER_BOUND('',#157,.T.);
#94=FACE_OUTER_BOUND('',#158,.T.);
#95=FACE_OUTER_BOUND('',#159,.T.);
#96=FACE_OUTER_BOUND('',#160,.T.);
#97=FACE_OUTER_BOUND('',#161,.T.);
#98=FACE_OUTER_BOUND('',#162,.T.);
#99=FACE_OUTER_BOUND('',#163,.T.);
#100=FACE_OUTER_BOUND('',#164,.T.);
#101=FACE_OUTER_BOUND('',#165,.T.);
#102=FACE_OUTER_BOUND('',#166,.T.);
#103=FACE_OUTER_BOUND('',#167,.T.);
#104=FACE_OUTER_BOUND('',#168,.T.);
#105=FACE_OUTER_BOUND('',#169,.T.);
#106=FACE_OUTER_BOUND('',#170,.T.);
#107=FACE_OUTER_BOUND('',#171,.T.);
#108=FACE_OUTER_BOUND('',#172,.T.);
#109=FACE_OUTER_BOUND('',#173,.T.);
#110=FACE_OUTER_BOUND('',#177,.T.);
#111=FACE_OUTER_BOUND('',#178,.T.);
#112=FACE_OUTER_BOUND('',#179,.T.);
#113=FACE_OUTER_BOUND('',#180,.T.);
#114=FACE_OUTER_BOUND('',#181,.T.);
#115=FACE_OUTER_BOUND('',#182,.T.);
#116=FACE_OUTER_BOUND('',#183,.T.);
#117=FACE_OUTER_BOUND('',#184,.T.);
#118=FACE_OUTER_BOUND('',#185,.T.);
#119=FACE_OUTER_BOUND('',#186,.T.);
#120=FACE_OUTER_BOUND('',#187,.T.);
#121=FACE_OUTER_BOUND('',#188,.T.);
#122=FACE_OUTER_BOUND('',#189,.T.);
#123=FACE_OUTER_BOUND('',#190,.T.);
#124=FACE_OUTER_BOUND('',#191,.T.);
#125=FACE_OUTER_BOUND('',#192,.T.);
#126=FACE_OUTER_BOUND('',#193,.T.);
#127=FACE_OUTER_BOUND('',#194,.T.);
#128=FACE_OUTER_BOUND('',#195,.T.);
#129=FACE_OUTER_BOUND('',#196,.T.);
#130=FACE_OUTER_BOUND('',#197,.T.);
#131=FACE_OUTER_BOUND('',#198,.T.);
#132=FACE_OUTER_BOUND('',#199,.T.);
#133=FACE_OUTER_BOUND('',#200,.T.);
#134=FACE_OUTER_BOUND('',#201,.T.);
#135=FACE_OUTER_BOUND('',#202,.T.);
#136=FACE_OUTER_BOUND('',#203,.T.);
#137=FACE_OUTER_BOUND('',#204,.T.);
#138=FACE_OUTER_BOUND('',#208,.T.);
#139=FACE_OUTER_BOUND('',#209,.T.);
#140=FACE_OUTER_BOUND('',#210,.T.);
#141=FACE_OUTER_BOUND('',#211,.T.);
#142=FACE_OUTER_BOUND('',#212,.T.);
#143=FACE_OUTER_BOUND('',#213,.T.);
#144=FACE_OUTER_BOUND('',#214,.T.);
#145=FACE_OUTER_BOUND('',#215,.T.);
#146=FACE_OUTER_BOUND('',#216,.T.);
#147=FACE_OUTER_BOUND('',#217,.T.);
#148=FACE_OUTER_BOUND('',#218,.T.);
#149=FACE_OUTER_BOUND('',#219,.T.);
#150=FACE_OUTER_BOUND('',#220,.T.);
#151=FACE_OUTER_BOUND('',#221,.T.);
#152=FACE_OUTER_BOUND('',#222,.T.);
#153=FACE_OUTER_BOUND('',#223,.T.);
#154=FACE_OUTER_BOUND('',#224,.T.);
#155=EDGE_LOOP('',(#647,#648,#649,#650));
#156=EDGE_LOOP('',(#651));
#157=EDGE_LOOP('',(#652,#653,#654,#655));
#158=EDGE_LOOP('',(#656));
#159=EDGE_LOOP('',(#657,#658,#659,#660));
#160=EDGE_LOOP('',(#661));
#161=EDGE_LOOP('',(#662,#663,#664,#665));
#162=EDGE_LOOP('',(#666,#667,#668,#669));
#163=EDGE_LOOP('',(#670,#671,#672,#673));
#164=EDGE_LOOP('',(#674,#675,#676,#677));
#165=EDGE_LOOP('',(#678,#679,#680,#681));
#166=EDGE_LOOP('',(#682,#683,#684,#685));
#167=EDGE_LOOP('',(#686,#687,#688,#689));
#168=EDGE_LOOP('',(#690,#691,#692,#693));
#169=EDGE_LOOP('',(#694,#695,#696,#697));
#170=EDGE_LOOP('',(#698,#699,#700,#701));
#171=EDGE_LOOP('',(#702,#703,#704,#705));
#172=EDGE_LOOP('',(#706,#707,#708,#709));
#173=EDGE_LOOP('',(#710,#711,#712,#713,#714,#715,#716,#717));
#174=EDGE_LOOP('',(#718));
#175=EDGE_LOOP('',(#719));
#176=EDGE_LOOP('',(#720));
#177=EDGE_LOOP('',(#721,#722,#723));
#178=EDGE_LOOP('',(#724,#725,#726));
#179=EDGE_LOOP('',(#727,#728,#729));
#180=EDGE_LOOP('',(#730,#731,#732));
#181=EDGE_LOOP('',(#733,#734,#735,#736));
#182=EDGE_LOOP('',(#737,#738,#739,#740));
#183=EDGE_LOOP('',(#741,#742,#743,#744));
#184=EDGE_LOOP('',(#745,#746,#747,#748));
#185=EDGE_LOOP('',(#749,#750,#751,#752));
#186=EDGE_LOOP('',(#753,#754,#755,#756));
#187=EDGE_LOOP('',(#757,#758,#759,#760));
#188=EDGE_LOOP('',(#761,#762,#763,#764));
#189=EDGE_LOOP('',(#765,#766,#767,#768));
#190=EDGE_LOOP('',(#769,#770,#771,#772));
#191=EDGE_LOOP('',(#773));
#192=EDGE_LOOP('',(#774,#775,#776,#777));
#193=EDGE_LOOP('',(#778,#779,#780,#781));
#194=EDGE_LOOP('',(#782,#783,#784,#785));
#195=EDGE_LOOP('',(#786,#787,#788,#789));
#196=EDGE_LOOP('',(#790,#791,#792,#793));
#197=EDGE_LOOP('',(#794,#795,#796,#797));
#198=EDGE_LOOP('',(#798,#799,#800,#801));
#199=EDGE_LOOP('',(#802,#803,#804,#805));
#200=EDGE_LOOP('',(#806,#807,#808,#809));
#201=EDGE_LOOP('',(#810,#811,#812,#813));
#202=EDGE_LOOP('',(#814,#815,#816,#817));
#203=EDGE_LOOP('',(#818,#819,#820,#821));
#204=EDGE_LOOP('',(#822,#823,#824,#825,#826,#827,#828,#829));
#205=EDGE_LOOP('',(#830));
#206=EDGE_LOOP('',(#831));
#207=EDGE_LOOP('',(#832));
#208=EDGE_LOOP('',(#833,#834,#835));
#209=EDGE_LOOP('',(#836,#837,#838));
#210=EDGE_LOOP('',(#839,#840,#841,#842));
#211=EDGE_LOOP('',(#843,#844,#845,#846));
#212=EDGE_LOOP('',(#847,#848,#849));
#213=EDGE_LOOP('',(#850,#851,#852,#853));
#214=EDGE_LOOP('',(#854,#855,#856));
#215=EDGE_LOOP('',(#857,#858,#859,#860));
#216=EDGE_LOOP('',(#861,#862,#863,#864));
#217=EDGE_LOOP('',(#865,#866,#867,#868));
#218=EDGE_LOOP('',(#869,#870,#871,#872));
#219=EDGE_LOOP('',(#873,#874,#875,#876));
#220=EDGE_LOOP('',(#877));
#221=EDGE_LOOP('',(#878,#879,#880,#881));
#222=EDGE_LOOP('',(#882));
#223=EDGE_LOOP('',(#883,#884,#885,#886));
#224=EDGE_LOOP('',(#887,#888,#889,#890));
#225=LINE('',#1345,#335);
#226=LINE('',#1352,#336);
#227=LINE('',#1359,#337);
#228=LINE('',#1365,#338);
#229=LINE('',#1367,#339);
#230=LINE('',#1369,#340);
#231=LINE('',#1370,#341);
#232=LINE('',#1374,#342);
#233=LINE('',#1376,#343);
#234=LINE('',#1378,#344);
#235=LINE('',#1379,#345);
#236=LINE('',#1383,#346);
#237=LINE('',#1385,#347);
#238=LINE('',#1387,#348);
#239=LINE('',#1388,#349);
#240=LINE('',#1391,#350);
#241=LINE('',#1393,#351);
#242=LINE('',#1394,#352);
#243=LINE('',#1396,#353);
#244=LINE('',#1397,#354);
#245=LINE('',#1400,#355);
#246=LINE('',#1402,#356);
#247=LINE('',#1403,#357);
#248=LINE('',#1405,#358);
#249=LINE('',#1406,#359);
#250=LINE('',#1408,#360);
#251=LINE('',#1409,#361);
#252=LINE('',#1412,#362);
#253=LINE('',#1414,#363);
#254=LINE('',#1415,#364);
#255=LINE('',#1418,#365);
#256=LINE('',#1419,#366);
#257=LINE('',#1422,#367);
#258=LINE('',#1423,#368);
#259=LINE('',#1426,#369);
#260=LINE('',#1427,#370);
#261=LINE('',#1431,#371);
#262=LINE('',#1432,#372);
#263=LINE('',#1436,#373);
#264=LINE('',#1438,#374);
#265=LINE('',#1439,#375);
#266=LINE('',#1442,#376);
#267=LINE('',#1443,#377);
#268=LINE('',#1446,#378);
#269=LINE('',#1448,#379);
#270=LINE('',#1449,#380);
#271=LINE('',#1451,#381);
#272=LINE('',#1452,#382);
#273=LINE('',#1454,#383);
#274=LINE('',#1456,#384);
#275=LINE('',#1458,#385);
#276=LINE('',#1460,#386);
#277=LINE('',#1461,#387);
#278=LINE('',#1463,#388);
#279=LINE('',#1464,#389);
#280=LINE('',#1473,#390);
#281=LINE('',#1479,#391);
#282=LINE('',#1481,#392);
#283=LINE('',#1483,#393);
#284=LINE('',#1484,#394);
#285=LINE('',#1487,#395);
#286=LINE('',#1489,#396);
#287=LINE('',#1490,#397);
#288=LINE('',#1494,#398);
#289=LINE('',#1496,#399);
#290=LINE('',#1498,#400);
#291=LINE('',#1499,#401);
#292=LINE('',#1502,#402);
#293=LINE('',#1504,#403);
#294=LINE('',#1505,#404);
#295=LINE('',#1508,#405);
#296=LINE('',#1510,#406);
#297=LINE('',#1511,#407);
#298=LINE('',#1514,#408);
#299=LINE('',#1516,#409);
#300=LINE('',#1517,#410);
#301=LINE('',#1519,#411);
#302=LINE('',#1520,#412);
#303=LINE('',#1522,#413);
#304=LINE('',#1523,#414);
#305=LINE('',#1526,#415);
#306=LINE('',#1528,#416);
#307=LINE('',#1529,#417);
#308=LINE('',#1532,#418);
#309=LINE('',#1533,#419);
#310=LINE('',#1536,#420);
#311=LINE('',#1537,#421);
#312=LINE('',#1540,#422);
#313=LINE('',#1541,#423);
#314=LINE('',#1549,#424);
#315=LINE('',#1550,#425);
#316=LINE('',#1554,#426);
#317=LINE('',#1556,#427);
#318=LINE('',#1557,#428);
#319=LINE('',#1559,#429);
#320=LINE('',#1560,#430);
#321=LINE('',#1562,#431);
#322=LINE('',#1563,#432);
#323=LINE('',#1566,#433);
#324=LINE('',#1567,#434);
#325=LINE('',#1569,#435);
#326=LINE('',#1572,#436);
#327=LINE('',#1574,#437);
#328=LINE('',#1575,#438);
#329=LINE('',#1577,#439);
#330=LINE('',#1578,#440);
#331=LINE('',#1580,#441);
#332=LINE('',#1582,#442);
#333=LINE('',#1589,#443);
#334=LINE('',#1594,#444);
#335=VECTOR('',#1075,0.5);
#336=VECTOR('',#1084,0.164370078740157);
#337=VECTOR('',#1093,0.164370078740157);
#338=VECTOR('',#1100,0.393700787401575);
#339=VECTOR('',#1101,0.393700787401575);
#340=VECTOR('',#1102,0.393700787401575);
#341=VECTOR('',#1103,0.393700787401575);
#342=VECTOR('',#1106,0.393700787401575);
#343=VECTOR('',#1107,0.393700787401575);
#344=VECTOR('',#1108,0.393700787401575);
#345=VECTOR('',#1109,0.393700787401575);
#346=VECTOR('',#1112,0.393700787401575);
#347=VECTOR('',#1113,0.393700787401575);
#348=VECTOR('',#1114,0.393700787401575);
#349=VECTOR('',#1115,0.393700787401575);
#350=VECTOR('',#1118,0.393700787401575);
#351=VECTOR('',#1119,0.393700787401575);
#352=VECTOR('',#1120,0.393700787401575);
#353=VECTOR('',#1123,0.393700787401575);
#354=VECTOR('',#1124,0.393700787401575);
#355=VECTOR('',#1127,0.393700787401575);
#356=VECTOR('',#1128,0.393700787401575);
#357=VECTOR('',#1129,0.393700787401575);
#358=VECTOR('',#1132,0.393700787401575);
#359=VECTOR('',#1133,0.393700787401575);
#360=VECTOR('',#1136,0.393700787401575);
#361=VECTOR('',#1137,0.393700787401575);
#362=VECTOR('',#1140,0.393700787401575);
#363=VECTOR('',#1141,0.393700787401575);
#364=VECTOR('',#1142,0.393700787401575);
#365=VECTOR('',#1145,0.393700787401575);
#366=VECTOR('',#1146,0.393700787401575);
#367=VECTOR('',#1149,0.393700787401575);
#368=VECTOR('',#1150,0.393700787401575);
#369=VECTOR('',#1153,0.393700787401575);
#370=VECTOR('',#1154,0.393700787401575);
#371=VECTOR('',#1159,0.393700787401575);
#372=VECTOR('',#1160,0.393700787401575);
#373=VECTOR('',#1163,0.393700787401575);
#374=VECTOR('',#1164,0.393700787401575);
#375=VECTOR('',#1165,0.393700787401575);
#376=VECTOR('',#1168,0.393700787401575);
#377=VECTOR('',#1169,0.393700787401575);
#378=VECTOR('',#1172,0.393700787401575);
#379=VECTOR('',#1173,0.393700787401575);
#380=VECTOR('',#1174,0.393700787401575);
#381=VECTOR('',#1177,0.393700787401575);
#382=VECTOR('',#1178,0.393700787401575);
#383=VECTOR('',#1181,0.393700787401575);
#384=VECTOR('',#1184,0.393700787401575);
#385=VECTOR('',#1187,0.393700787401575);
#386=VECTOR('',#1190,0.393700787401575);
#387=VECTOR('',#1191,0.393700787401575);
#388=VECTOR('',#1194,0.393700787401575);
#389=VECTOR('',#1195,0.393700787401575);
#390=VECTOR('',#1208,0.5);
#391=VECTOR('',#1215,0.393700787401575);
#392=VECTOR('',#1216,0.393700787401575);
#393=VECTOR('',#1217,0.393700787401575);
#394=VECTOR('',#1218,0.393700787401575);
#395=VECTOR('',#1221,0.393700787401575);
#396=VECTOR('',#1222,0.393700787401575);
#397=VECTOR('',#1223,0.393700787401575);
#398=VECTOR('',#1226,0.393700787401575);
#399=VECTOR('',#1227,0.393700787401575);
#400=VECTOR('',#1228,0.393700787401575);
#401=VECTOR('',#1229,0.393700787401575);
#402=VECTOR('',#1232,0.393700787401575);
#403=VECTOR('',#1233,0.393700787401575);
#404=VECTOR('',#1234,0.393700787401575);
#405=VECTOR('',#1237,0.393700787401575);
#406=VECTOR('',#1238,0.393700787401575);
#407=VECTOR('',#1239,0.393700787401575);
#408=VECTOR('',#1242,0.393700787401575);
#409=VECTOR('',#1243,0.393700787401575);
#410=VECTOR('',#1244,0.393700787401575);
#411=VECTOR('',#1247,0.393700787401575);
#412=VECTOR('',#1248,0.393700787401575);
#413=VECTOR('',#1251,0.393700787401575);
#414=VECTOR('',#1252,0.393700787401575);
#415=VECTOR('',#1255,0.393700787401575);
#416=VECTOR('',#1256,0.393700787401575);
#417=VECTOR('',#1257,0.393700787401575);
#418=VECTOR('',#1260,0.393700787401575);
#419=VECTOR('',#1261,0.393700787401575);
#420=VECTOR('',#1264,0.393700787401575);
#421=VECTOR('',#1265,0.393700787401575);
#422=VECTOR('',#1268,0.393700787401575);
#423=VECTOR('',#1269,0.393700787401575);
#424=VECTOR('',#1278,0.393700787401575);
#425=VECTOR('',#1279,0.393700787401575);
#426=VECTOR('',#1282,0.393700787401575);
#427=VECTOR('',#1283,0.393700787401575);
#428=VECTOR('',#1284,0.393700787401575);
#429=VECTOR('',#1287,0.393700787401575);
#430=VECTOR('',#1288,0.393700787401575);
#431=VECTOR('',#1291,0.393700787401575);
#432=VECTOR('',#1292,0.393700787401575);
#433=VECTOR('',#1295,0.393700787401575);
#434=VECTOR('',#1296,0.393700787401575);
#435=VECTOR('',#1299,0.393700787401575);
#436=VECTOR('',#1302,0.393700787401575);
#437=VECTOR('',#1303,0.393700787401575);
#438=VECTOR('',#1304,0.393700787401575);
#439=VECTOR('',#1307,0.393700787401575);
#440=VECTOR('',#1308,0.393700787401575);
#441=VECTOR('',#1311,0.393700787401575);
#442=VECTOR('',#1314,0.393700787401575);
#443=VECTOR('',#1325,0.164370078740157);
#444=VECTOR('',#1332,0.164370078740157);
#445=CIRCLE('',#989,0.5);
#446=CIRCLE('',#990,0.5);
#447=CIRCLE('',#993,0.164370078740157);
#448=CIRCLE('',#994,0.164370078740157);
#449=CIRCLE('',#997,0.164370078740157);
#450=CIRCLE('',#998,0.164370078740157);
#451=CIRCLE('',#1028,0.5);
#452=CIRCLE('',#1029,0.5);
#453=CIRCLE('',#1044,0.164370078740157);
#454=CIRCLE('',#1045,0.164370078740157);
#455=CIRCLE('',#1059,0.164370078740157);
#456=CIRCLE('',#1062,0.164370078740157);
#457=VERTEX_POINT('',#1342);
#458=VERTEX_POINT('',#1344);
#459=VERTEX_POINT('',#1349);
#460=VERTEX_POINT('',#1351);
#461=VERTEX_POINT('',#1356);
#462=VERTEX_POINT('',#1358);
#463=VERTEX_POINT('',#1363);
#464=VERTEX_POINT('',#1364);
#465=VERTEX_POINT('',#1366);
#466=VERTEX_POINT('',#1368);
#467=VERTEX_POINT('',#1372);
#468=VERTEX_POINT('',#1373);
#469=VERTEX_POINT('',#1375);
#470=VERTEX_POINT('',#1377);
#471=VERTEX_POINT('',#1381);
#472=VERTEX_POINT('',#1382);
#473=VERTEX_POINT('',#1384);
#474=VERTEX_POINT('',#1386);
#475=VERTEX_POINT('',#1390);
#476=VERTEX_POINT('',#1392);
#477=VERTEX_POINT('',#1399);
#478=VERTEX_POINT('',#1401);
#479=VERTEX_POINT('',#1411);
#480=VERTEX_POINT('',#1413);
#481=VERTEX_POINT('',#1417);
#482=VERTEX_POINT('',#1421);
#483=VERTEX_POINT('',#1425);
#484=VERTEX_POINT('',#1430);
#485=VERTEX_POINT('',#1434);
#486=VERTEX_POINT('',#1435);
#487=VERTEX_POINT('',#1437);
#488=VERTEX_POINT('',#1441);
#489=VERTEX_POINT('',#1445);
#490=VERTEX_POINT('',#1447);
#491=VERTEX_POINT('',#1470);
#492=VERTEX_POINT('',#1472);
#493=VERTEX_POINT('',#1477);
#494=VERTEX_POINT('',#1478);
#495=VERTEX_POINT('',#1480);
#496=VERTEX_POINT('',#1482);
#497=VERTEX_POINT('',#1486);
#498=VERTEX_POINT('',#1488);
#499=VERTEX_POINT('',#1492);
#500=VERTEX_POINT('',#1493);
#501=VERTEX_POINT('',#1495);
#502=VERTEX_POINT('',#1497);
#503=VERTEX_POINT('',#1501);
#504=VERTEX_POINT('',#1503);
#505=VERTEX_POINT('',#1507);
#506=VERTEX_POINT('',#1509);
#507=VERTEX_POINT('',#1513);
#508=VERTEX_POINT('',#1515);
#509=VERTEX_POINT('',#1525);
#510=VERTEX_POINT('',#1527);
#511=VERTEX_POINT('',#1531);
#512=VERTEX_POINT('',#1535);
#513=VERTEX_POINT('',#1539);
#514=VERTEX_POINT('',#1543);
#515=VERTEX_POINT('',#1545);
#516=VERTEX_POINT('',#1548);
#517=VERTEX_POINT('',#1552);
#518=VERTEX_POINT('',#1553);
#519=VERTEX_POINT('',#1555);
#520=VERTEX_POINT('',#1565);
#521=VERTEX_POINT('',#1571);
#522=VERTEX_POINT('',#1573);
#523=VERTEX_POINT('',#1586);
#524=VERTEX_POINT('',#1591);
#525=EDGE_CURVE('',#457,#457,#445,.T.);
#526=EDGE_CURVE('',#457,#458,#225,.T.);
#527=EDGE_CURVE('',#458,#458,#446,.T.);
#528=EDGE_CURVE('',#459,#459,#447,.T.);
#529=EDGE_CURVE('',#459,#460,#226,.T.);
#530=EDGE_CURVE('',#460,#460,#448,.T.);
#531=EDGE_CURVE('',#461,#461,#449,.T.);
#532=EDGE_CURVE('',#461,#462,#227,.T.);
#533=EDGE_CURVE('',#462,#462,#450,.T.);
#534=EDGE_CURVE('',#463,#464,#228,.T.);
#535=EDGE_CURVE('',#464,#465,#229,.T.);
#536=EDGE_CURVE('',#465,#466,#230,.T.);
#537=EDGE_CURVE('',#463,#466,#231,.T.);
#538=EDGE_CURVE('',#467,#468,#232,.T.);
#539=EDGE_CURVE('',#468,#469,#233,.T.);
#540=EDGE_CURVE('',#469,#470,#234,.T.);
#541=EDGE_CURVE('',#470,#467,#235,.T.);
#542=EDGE_CURVE('',#471,#472,#236,.T.);
#543=EDGE_CURVE('',#472,#473,#237,.T.);
#544=EDGE_CURVE('',#473,#474,#238,.T.);
#545=EDGE_CURVE('',#474,#471,#239,.T.);
#546=EDGE_CURVE('',#472,#475,#240,.T.);
#547=EDGE_CURVE('',#475,#476,#241,.T.);
#548=EDGE_CURVE('',#476,#473,#242,.T.);
#549=EDGE_CURVE('',#468,#476,#243,.T.);
#550=EDGE_CURVE('',#475,#469,#244,.T.);
#551=EDGE_CURVE('',#477,#471,#245,.T.);
#552=EDGE_CURVE('',#474,#478,#246,.T.);
#553=EDGE_CURVE('',#478,#477,#247,.T.);
#554=EDGE_CURVE('',#464,#467,#248,.T.);
#555=EDGE_CURVE('',#470,#465,#249,.T.);
#556=EDGE_CURVE('',#466,#477,#250,.T.);
#557=EDGE_CURVE('',#478,#463,#251,.T.);
#558=EDGE_CURVE('',#479,#463,#252,.T.);
#559=EDGE_CURVE('',#480,#479,#253,.T.);
#560=EDGE_CURVE('',#464,#480,#254,.T.);
#561=EDGE_CURVE('',#478,#481,#255,.T.);
#562=EDGE_CURVE('',#481,#479,#256,.T.);
#563=EDGE_CURVE('',#482,#474,#257,.T.);
#564=EDGE_CURVE('',#481,#482,#258,.T.);
#565=EDGE_CURVE('',#473,#483,#259,.T.);
#566=EDGE_CURVE('',#483,#482,#260,.T.);
#567=EDGE_CURVE('',#484,#483,#261,.T.);
#568=EDGE_CURVE('',#482,#484,#262,.T.);
#569=EDGE_CURVE('',#485,#486,#263,.T.);
#570=EDGE_CURVE('',#487,#485,#264,.T.);
#571=EDGE_CURVE('',#486,#487,#265,.T.);
#572=EDGE_CURVE('',#488,#481,#266,.T.);
#573=EDGE_CURVE('',#479,#488,#267,.T.);
#574=EDGE_CURVE('',#489,#480,#268,.T.);
#575=EDGE_CURVE('',#490,#489,#269,.T.);
#576=EDGE_CURVE('',#480,#490,#270,.T.);
#577=EDGE_CURVE('',#485,#490,#271,.T.);
#578=EDGE_CURVE('',#489,#487,#272,.T.);
#579=EDGE_CURVE('',#490,#467,#273,.T.);
#580=EDGE_CURVE('',#488,#489,#274,.T.);
#581=EDGE_CURVE('',#484,#488,#275,.T.);
#582=EDGE_CURVE('',#483,#486,#276,.T.);
#583=EDGE_CURVE('',#487,#484,#277,.T.);
#584=EDGE_CURVE('',#468,#485,#278,.T.);
#585=EDGE_CURVE('',#486,#476,#279,.T.);
#586=EDGE_CURVE('',#491,#491,#451,.T.);
#587=EDGE_CURVE('',#491,#492,#280,.T.);
#588=EDGE_CURVE('',#492,#492,#452,.T.);
#589=EDGE_CURVE('',#493,#494,#281,.T.);
#590=EDGE_CURVE('',#494,#495,#282,.T.);
#591=EDGE_CURVE('',#495,#496,#283,.T.);
#592=EDGE_CURVE('',#493,#496,#284,.T.);
#593=EDGE_CURVE('',#494,#497,#285,.T.);
#594=EDGE_CURVE('',#497,#498,#286,.T.);
#595=EDGE_CURVE('',#498,#495,#287,.T.);
#596=EDGE_CURVE('',#499,#500,#288,.T.);
#597=EDGE_CURVE('',#500,#501,#289,.T.);
#598=EDGE_CURVE('',#501,#502,#290,.T.);
#599=EDGE_CURVE('',#502,#499,#291,.T.);
#600=EDGE_CURVE('',#497,#503,#292,.T.);
#601=EDGE_CURVE('',#503,#504,#293,.T.);
#602=EDGE_CURVE('',#504,#498,#294,.T.);
#603=EDGE_CURVE('',#500,#505,#295,.T.);
#604=EDGE_CURVE('',#505,#506,#296,.T.);
#605=EDGE_CURVE('',#506,#501,#297,.T.);
#606=EDGE_CURVE('',#505,#507,#298,.T.);
#607=EDGE_CURVE('',#507,#508,#299,.T.);
#608=EDGE_CURVE('',#508,#506,#300,.T.);
#609=EDGE_CURVE('',#503,#508,#301,.T.);
#610=EDGE_CURVE('',#507,#504,#302,.T.);
#611=EDGE_CURVE('',#496,#499,#303,.T.);
#612=EDGE_CURVE('',#502,#493,#304,.T.);
#613=EDGE_CURVE('',#507,#509,#305,.T.);
#614=EDGE_CURVE('',#509,#510,#306,.T.);
#615=EDGE_CURVE('',#510,#504,#307,.T.);
#616=EDGE_CURVE('',#511,#505,#308,.T.);
#617=EDGE_CURVE('',#509,#511,#309,.T.);
#618=EDGE_CURVE('',#500,#512,#310,.T.);
#619=EDGE_CURVE('',#512,#511,#311,.T.);
#620=EDGE_CURVE('',#513,#499,#312,.T.);
#621=EDGE_CURVE('',#512,#513,#313,.T.);
#622=EDGE_CURVE('',#514,#514,#453,.T.);
#623=EDGE_CURVE('',#515,#515,#454,.T.);
#624=EDGE_CURVE('',#510,#516,#314,.T.);
#625=EDGE_CURVE('',#516,#509,#315,.T.);
#626=EDGE_CURVE('',#517,#518,#316,.T.);
#627=EDGE_CURVE('',#519,#517,#317,.T.);
#628=EDGE_CURVE('',#518,#519,#318,.T.);
#629=EDGE_CURVE('',#498,#519,#319,.T.);
#630=EDGE_CURVE('',#517,#495,#320,.T.);
#631=EDGE_CURVE('',#516,#518,#321,.T.);
#632=EDGE_CURVE('',#519,#510,#322,.T.);
#633=EDGE_CURVE('',#520,#512,#323,.T.);
#634=EDGE_CURVE('',#511,#520,#324,.T.);
#635=EDGE_CURVE('',#520,#516,#325,.T.);
#636=EDGE_CURVE('',#521,#513,#326,.T.);
#637=EDGE_CURVE('',#522,#521,#327,.T.);
#638=EDGE_CURVE('',#513,#522,#328,.T.);
#639=EDGE_CURVE('',#521,#517,#329,.T.);
#640=EDGE_CURVE('',#518,#522,#330,.T.);
#641=EDGE_CURVE('',#522,#520,#331,.T.);
#642=EDGE_CURVE('',#496,#521,#332,.T.);
#643=EDGE_CURVE('',#523,#523,#455,.T.);
#644=EDGE_CURVE('',#523,#515,#333,.T.);
#645=EDGE_CURVE('',#524,#524,#456,.T.);
#646=EDGE_CURVE('',#524,#514,#334,.T.);
#647=ORIENTED_EDGE('',*,*,#525,.F.);
#648=ORIENTED_EDGE('',*,*,#526,.T.);
#649=ORIENTED_EDGE('',*,*,#527,.T.);
#650=ORIENTED_EDGE('',*,*,#526,.F.);
#651=ORIENTED_EDGE('',*,*,#527,.F.);
#652=ORIENTED_EDGE('',*,*,#528,.F.);
#653=ORIENTED_EDGE('',*,*,#529,.T.);
#654=ORIENTED_EDGE('',*,*,#530,.T.);
#655=ORIENTED_EDGE('',*,*,#529,.F.);
#656=ORIENTED_EDGE('',*,*,#530,.F.);
#657=ORIENTED_EDGE('',*,*,#531,.F.);
#658=ORIENTED_EDGE('',*,*,#532,.T.);
#659=ORIENTED_EDGE('',*,*,#533,.T.);
#660=ORIENTED_EDGE('',*,*,#532,.F.);
#661=ORIENTED_EDGE('',*,*,#533,.F.);
#662=ORIENTED_EDGE('',*,*,#534,.T.);
#663=ORIENTED_EDGE('',*,*,#535,.T.);
#664=ORIENTED_EDGE('',*,*,#536,.T.);
#665=ORIENTED_EDGE('',*,*,#537,.F.);
#666=ORIENTED_EDGE('',*,*,#538,.T.);
#667=ORIENTED_EDGE('',*,*,#539,.T.);
#668=ORIENTED_EDGE('',*,*,#540,.T.);
#669=ORIENTED_EDGE('',*,*,#541,.T.);
#670=ORIENTED_EDGE('',*,*,#542,.T.);
#671=ORIENTED_EDGE('',*,*,#543,.T.);
#672=ORIENTED_EDGE('',*,*,#544,.T.);
#673=ORIENTED_EDGE('',*,*,#545,.T.);
#674=ORIENTED_EDGE('',*,*,#546,.T.);
#675=ORIENTED_EDGE('',*,*,#547,.T.);
#676=ORIENTED_EDGE('',*,*,#548,.T.);
#677=ORIENTED_EDGE('',*,*,#543,.F.);
#678=ORIENTED_EDGE('',*,*,#549,.T.);
#679=ORIENTED_EDGE('',*,*,#547,.F.);
#680=ORIENTED_EDGE('',*,*,#550,.T.);
#681=ORIENTED_EDGE('',*,*,#539,.F.);
#682=ORIENTED_EDGE('',*,*,#551,.T.);
#683=ORIENTED_EDGE('',*,*,#545,.F.);
#684=ORIENTED_EDGE('',*,*,#552,.T.);
#685=ORIENTED_EDGE('',*,*,#553,.T.);
#686=ORIENTED_EDGE('',*,*,#554,.T.);
#687=ORIENTED_EDGE('',*,*,#541,.F.);
#688=ORIENTED_EDGE('',*,*,#555,.T.);
#689=ORIENTED_EDGE('',*,*,#535,.F.);
#690=ORIENTED_EDGE('',*,*,#556,.T.);
#691=ORIENTED_EDGE('',*,*,#553,.F.);
#692=ORIENTED_EDGE('',*,*,#557,.T.);
#693=ORIENTED_EDGE('',*,*,#537,.T.);
#694=ORIENTED_EDGE('',*,*,#534,.F.);
#695=ORIENTED_EDGE('',*,*,#558,.F.);
#696=ORIENTED_EDGE('',*,*,#559,.F.);
#697=ORIENTED_EDGE('',*,*,#560,.F.);
#698=ORIENTED_EDGE('',*,*,#557,.F.);
#699=ORIENTED_EDGE('',*,*,#561,.T.);
#700=ORIENTED_EDGE('',*,*,#562,.T.);
#701=ORIENTED_EDGE('',*,*,#558,.T.);
#702=ORIENTED_EDGE('',*,*,#552,.F.);
#703=ORIENTED_EDGE('',*,*,#563,.F.);
#704=ORIENTED_EDGE('',*,*,#564,.F.);
#705=ORIENTED_EDGE('',*,*,#561,.F.);
#706=ORIENTED_EDGE('',*,*,#544,.F.);
#707=ORIENTED_EDGE('',*,*,#565,.T.);
#708=ORIENTED_EDGE('',*,*,#566,.T.);
#709=ORIENTED_EDGE('',*,*,#563,.T.);
#710=ORIENTED_EDGE('',*,*,#542,.F.);
#711=ORIENTED_EDGE('',*,*,#551,.F.);
#712=ORIENTED_EDGE('',*,*,#556,.F.);
#713=ORIENTED_EDGE('',*,*,#536,.F.);
#714=ORIENTED_EDGE('',*,*,#555,.F.);
#715=ORIENTED_EDGE('',*,*,#540,.F.);
#716=ORIENTED_EDGE('',*,*,#550,.F.);
#717=ORIENTED_EDGE('',*,*,#546,.F.);
#718=ORIENTED_EDGE('',*,*,#525,.T.);
#719=ORIENTED_EDGE('',*,*,#528,.T.);
#720=ORIENTED_EDGE('',*,*,#531,.T.);
#721=ORIENTED_EDGE('',*,*,#566,.F.);
#722=ORIENTED_EDGE('',*,*,#567,.F.);
#723=ORIENTED_EDGE('',*,*,#568,.F.);
#724=ORIENTED_EDGE('',*,*,#569,.F.);
#725=ORIENTED_EDGE('',*,*,#570,.F.);
#726=ORIENTED_EDGE('',*,*,#571,.F.);
#727=ORIENTED_EDGE('',*,*,#572,.F.);
#728=ORIENTED_EDGE('',*,*,#573,.F.);
#729=ORIENTED_EDGE('',*,*,#562,.F.);
#730=ORIENTED_EDGE('',*,*,#574,.F.);
#731=ORIENTED_EDGE('',*,*,#575,.F.);
#732=ORIENTED_EDGE('',*,*,#576,.F.);
#733=ORIENTED_EDGE('',*,*,#570,.T.);
#734=ORIENTED_EDGE('',*,*,#577,.T.);
#735=ORIENTED_EDGE('',*,*,#575,.T.);
#736=ORIENTED_EDGE('',*,*,#578,.T.);
#737=ORIENTED_EDGE('',*,*,#554,.F.);
#738=ORIENTED_EDGE('',*,*,#560,.T.);
#739=ORIENTED_EDGE('',*,*,#576,.T.);
#740=ORIENTED_EDGE('',*,*,#579,.T.);
#741=ORIENTED_EDGE('',*,*,#573,.T.);
#742=ORIENTED_EDGE('',*,*,#580,.T.);
#743=ORIENTED_EDGE('',*,*,#574,.T.);
#744=ORIENTED_EDGE('',*,*,#559,.T.);
#745=ORIENTED_EDGE('',*,*,#572,.T.);
#746=ORIENTED_EDGE('',*,*,#564,.T.);
#747=ORIENTED_EDGE('',*,*,#568,.T.);
#748=ORIENTED_EDGE('',*,*,#581,.T.);
#749=ORIENTED_EDGE('',*,*,#567,.T.);
#750=ORIENTED_EDGE('',*,*,#582,.T.);
#751=ORIENTED_EDGE('',*,*,#571,.T.);
#752=ORIENTED_EDGE('',*,*,#583,.T.);
#753=ORIENTED_EDGE('',*,*,#549,.F.);
#754=ORIENTED_EDGE('',*,*,#584,.T.);
#755=ORIENTED_EDGE('',*,*,#569,.T.);
#756=ORIENTED_EDGE('',*,*,#585,.T.);
#757=ORIENTED_EDGE('',*,*,#538,.F.);
#758=ORIENTED_EDGE('',*,*,#579,.F.);
#759=ORIENTED_EDGE('',*,*,#577,.F.);
#760=ORIENTED_EDGE('',*,*,#584,.F.);
#761=ORIENTED_EDGE('',*,*,#548,.F.);
#762=ORIENTED_EDGE('',*,*,#585,.F.);
#763=ORIENTED_EDGE('',*,*,#582,.F.);
#764=ORIENTED_EDGE('',*,*,#565,.F.);
#765=ORIENTED_EDGE('',*,*,#578,.F.);
#766=ORIENTED_EDGE('',*,*,#580,.F.);
#767=ORIENTED_EDGE('',*,*,#581,.F.);
#768=ORIENTED_EDGE('',*,*,#583,.F.);
#769=ORIENTED_EDGE('',*,*,#586,.F.);
#770=ORIENTED_EDGE('',*,*,#587,.T.);
#771=ORIENTED_EDGE('',*,*,#588,.T.);
#772=ORIENTED_EDGE('',*,*,#587,.F.);
#773=ORIENTED_EDGE('',*,*,#588,.F.);
#774=ORIENTED_EDGE('',*,*,#589,.T.);
#775=ORIENTED_EDGE('',*,*,#590,.T.);
#776=ORIENTED_EDGE('',*,*,#591,.T.);
#777=ORIENTED_EDGE('',*,*,#592,.F.);
#778=ORIENTED_EDGE('',*,*,#593,.T.);
#779=ORIENTED_EDGE('',*,*,#594,.T.);
#780=ORIENTED_EDGE('',*,*,#595,.T.);
#781=ORIENTED_EDGE('',*,*,#590,.F.);
#782=ORIENTED_EDGE('',*,*,#596,.T.);
#783=ORIENTED_EDGE('',*,*,#597,.T.);
#784=ORIENTED_EDGE('',*,*,#598,.T.);
#785=ORIENTED_EDGE('',*,*,#599,.T.);
#786=ORIENTED_EDGE('',*,*,#600,.T.);
#787=ORIENTED_EDGE('',*,*,#601,.T.);
#788=ORIENTED_EDGE('',*,*,#602,.T.);
#789=ORIENTED_EDGE('',*,*,#594,.F.);
#790=ORIENTED_EDGE('',*,*,#603,.T.);
#791=ORIENTED_EDGE('',*,*,#604,.T.);
#792=ORIENTED_EDGE('',*,*,#605,.T.);
#793=ORIENTED_EDGE('',*,*,#597,.F.);
#794=ORIENTED_EDGE('',*,*,#606,.T.);
#795=ORIENTED_EDGE('',*,*,#607,.T.);
#796=ORIENTED_EDGE('',*,*,#608,.T.);
#797=ORIENTED_EDGE('',*,*,#604,.F.);
#798=ORIENTED_EDGE('',*,*,#609,.T.);
#799=ORIENTED_EDGE('',*,*,#607,.F.);
#800=ORIENTED_EDGE('',*,*,#610,.T.);
#801=ORIENTED_EDGE('',*,*,#601,.F.);
#802=ORIENTED_EDGE('',*,*,#611,.T.);
#803=ORIENTED_EDGE('',*,*,#599,.F.);
#804=ORIENTED_EDGE('',*,*,#612,.T.);
#805=ORIENTED_EDGE('',*,*,#592,.T.);
#806=ORIENTED_EDGE('',*,*,#610,.F.);
#807=ORIENTED_EDGE('',*,*,#613,.T.);
#808=ORIENTED_EDGE('',*,*,#614,.T.);
#809=ORIENTED_EDGE('',*,*,#615,.T.);
#810=ORIENTED_EDGE('',*,*,#606,.F.);
#811=ORIENTED_EDGE('',*,*,#616,.F.);
#812=ORIENTED_EDGE('',*,*,#617,.F.);
#813=ORIENTED_EDGE('',*,*,#613,.F.);
#814=ORIENTED_EDGE('',*,*,#603,.F.);
#815=ORIENTED_EDGE('',*,*,#618,.T.);
#816=ORIENTED_EDGE('',*,*,#619,.T.);
#817=ORIENTED_EDGE('',*,*,#616,.T.);
#818=ORIENTED_EDGE('',*,*,#596,.F.);
#819=ORIENTED_EDGE('',*,*,#620,.F.);
#820=ORIENTED_EDGE('',*,*,#621,.F.);
#821=ORIENTED_EDGE('',*,*,#618,.F.);
#822=ORIENTED_EDGE('',*,*,#598,.F.);
#823=ORIENTED_EDGE('',*,*,#605,.F.);
#824=ORIENTED_EDGE('',*,*,#608,.F.);
#825=ORIENTED_EDGE('',*,*,#609,.F.);
#826=ORIENTED_EDGE('',*,*,#600,.F.);
#827=ORIENTED_EDGE('',*,*,#593,.F.);
#828=ORIENTED_EDGE('',*,*,#589,.F.);
#829=ORIENTED_EDGE('',*,*,#612,.F.);
#830=ORIENTED_EDGE('',*,*,#586,.T.);
#831=ORIENTED_EDGE('',*,*,#622,.T.);
#832=ORIENTED_EDGE('',*,*,#623,.T.);
#833=ORIENTED_EDGE('',*,*,#624,.F.);
#834=ORIENTED_EDGE('',*,*,#614,.F.);
#835=ORIENTED_EDGE('',*,*,#625,.F.);
#836=ORIENTED_EDGE('',*,*,#626,.F.);
#837=ORIENTED_EDGE('',*,*,#627,.F.);
#838=ORIENTED_EDGE('',*,*,#628,.F.);
#839=ORIENTED_EDGE('',*,*,#595,.F.);
#840=ORIENTED_EDGE('',*,*,#629,.T.);
#841=ORIENTED_EDGE('',*,*,#627,.T.);
#842=ORIENTED_EDGE('',*,*,#630,.T.);
#843=ORIENTED_EDGE('',*,*,#624,.T.);
#844=ORIENTED_EDGE('',*,*,#631,.T.);
#845=ORIENTED_EDGE('',*,*,#628,.T.);
#846=ORIENTED_EDGE('',*,*,#632,.T.);
#847=ORIENTED_EDGE('',*,*,#633,.F.);
#848=ORIENTED_EDGE('',*,*,#634,.F.);
#849=ORIENTED_EDGE('',*,*,#619,.F.);
#850=ORIENTED_EDGE('',*,*,#634,.T.);
#851=ORIENTED_EDGE('',*,*,#635,.T.);
#852=ORIENTED_EDGE('',*,*,#625,.T.);
#853=ORIENTED_EDGE('',*,*,#617,.T.);
#854=ORIENTED_EDGE('',*,*,#636,.F.);
#855=ORIENTED_EDGE('',*,*,#637,.F.);
#856=ORIENTED_EDGE('',*,*,#638,.F.);
#857=ORIENTED_EDGE('',*,*,#637,.T.);
#858=ORIENTED_EDGE('',*,*,#639,.T.);
#859=ORIENTED_EDGE('',*,*,#626,.T.);
#860=ORIENTED_EDGE('',*,*,#640,.T.);
#861=ORIENTED_EDGE('',*,*,#633,.T.);
#862=ORIENTED_EDGE('',*,*,#621,.T.);
#863=ORIENTED_EDGE('',*,*,#638,.T.);
#864=ORIENTED_EDGE('',*,*,#641,.T.);
#865=ORIENTED_EDGE('',*,*,#611,.F.);
#866=ORIENTED_EDGE('',*,*,#642,.T.);
#867=ORIENTED_EDGE('',*,*,#636,.T.);
#868=ORIENTED_EDGE('',*,*,#620,.T.);
#869=ORIENTED_EDGE('',*,*,#591,.F.);
#870=ORIENTED_EDGE('',*,*,#630,.F.);
#871=ORIENTED_EDGE('',*,*,#639,.F.);
#872=ORIENTED_EDGE('',*,*,#642,.F.);
#873=ORIENTED_EDGE('',*,*,#631,.F.);
#874=ORIENTED_EDGE('',*,*,#635,.F.);
#875=ORIENTED_EDGE('',*,*,#641,.F.);
#876=ORIENTED_EDGE('',*,*,#640,.F.);
#877=ORIENTED_EDGE('',*,*,#643,.F.);
#878=ORIENTED_EDGE('',*,*,#643,.T.);
#879=ORIENTED_EDGE('',*,*,#644,.T.);
#880=ORIENTED_EDGE('',*,*,#623,.F.);
#881=ORIENTED_EDGE('',*,*,#644,.F.);
#882=ORIENTED_EDGE('',*,*,#645,.F.);
#883=ORIENTED_EDGE('',*,*,#645,.T.);
#884=ORIENTED_EDGE('',*,*,#646,.T.);
#885=ORIENTED_EDGE('',*,*,#622,.F.);
#886=ORIENTED_EDGE('',*,*,#646,.F.);
#887=ORIENTED_EDGE('',*,*,#602,.F.);
#888=ORIENTED_EDGE('',*,*,#615,.F.);
#889=ORIENTED_EDGE('',*,*,#632,.F.);
#890=ORIENTED_EDGE('',*,*,#629,.F.);
#891=CYLINDRICAL_SURFACE('',#988,0.5);
#892=CYLINDRICAL_SURFACE('',#992,0.164370078740157);
#893=CYLINDRICAL_SURFACE('',#996,0.164370078740157);
#894=CYLINDRICAL_SURFACE('',#1027,0.5);
#895=CYLINDRICAL_SURFACE('',#1060,0.164370078740157);
#896=CYLINDRICAL_SURFACE('',#1063,0.164370078740157);
#897=ADVANCED_FACE('',(#91),#891,.F.);
#898=ADVANCED_FACE('',(#92),#33,.F.);
#899=ADVANCED_FACE('',(#93),#892,.F.);
#900=ADVANCED_FACE('',(#94),#34,.F.);
#901=ADVANCED_FACE('',(#95),#893,.F.);
#902=ADVANCED_FACE('',(#96),#35,.F.);
#903=ADVANCED_FACE('',(#97),#36,.T.);
#904=ADVANCED_FACE('',(#98),#37,.T.);
#905=ADVANCED_FACE('',(#99),#38,.T.);
#906=ADVANCED_FACE('',(#100),#39,.T.);
#907=ADVANCED_FACE('',(#101),#40,.T.);
#908=ADVANCED_FACE('',(#102),#41,.T.);
#909=ADVANCED_FACE('',(#103),#42,.T.);
#910=ADVANCED_FACE('',(#104),#43,.T.);
#911=ADVANCED_FACE('',(#105),#44,.T.);
#912=ADVANCED_FACE('',(#106),#45,.T.);
#913=ADVANCED_FACE('',(#107),#46,.T.);
#914=ADVANCED_FACE('',(#108),#47,.T.);
#915=ADVANCED_FACE('',(#109,#27,#28,#29),#48,.T.);
#916=ADVANCED_FACE('',(#110),#49,.T.);
#917=ADVANCED_FACE('',(#111),#50,.T.);
#918=ADVANCED_FACE('',(#112),#51,.T.);
#919=ADVANCED_FACE('',(#113),#52,.T.);
#920=ADVANCED_FACE('',(#114),#53,.T.);
#921=ADVANCED_FACE('',(#115),#54,.T.);
#922=ADVANCED_FACE('',(#116),#55,.T.);
#923=ADVANCED_FACE('',(#117),#56,.T.);
#924=ADVANCED_FACE('',(#118),#57,.T.);
#925=ADVANCED_FACE('',(#119),#58,.T.);
#926=ADVANCED_FACE('',(#120),#59,.F.);
#927=ADVANCED_FACE('',(#121),#60,.T.);
#928=ADVANCED_FACE('',(#122),#61,.T.);
#929=ADVANCED_FACE('',(#123),#894,.F.);
#930=ADVANCED_FACE('',(#124),#62,.T.);
#931=ADVANCED_FACE('',(#125),#63,.T.);
#932=ADVANCED_FACE('',(#126),#64,.T.);
#933=ADVANCED_FACE('',(#127),#65,.T.);
#934=ADVANCED_FACE('',(#128),#66,.T.);
#935=ADVANCED_FACE('',(#129),#67,.T.);
#936=ADVANCED_FACE('',(#130),#68,.T.);
#937=ADVANCED_FACE('',(#131),#69,.T.);
#938=ADVANCED_FACE('',(#132),#70,.T.);
#939=ADVANCED_FACE('',(#133),#71,.T.);
#940=ADVANCED_FACE('',(#134),#72,.T.);
#941=ADVANCED_FACE('',(#135),#73,.T.);
#942=ADVANCED_FACE('',(#136),#74,.T.);
#943=ADVANCED_FACE('',(#137,#30,#31,#32),#75,.T.);
#944=ADVANCED_FACE('',(#138),#76,.T.);
#945=ADVANCED_FACE('',(#139),#77,.T.);
#946=ADVANCED_FACE('',(#140),#78,.T.);
#947=ADVANCED_FACE('',(#141),#79,.T.);
#948=ADVANCED_FACE('',(#142),#80,.T.);
#949=ADVANCED_FACE('',(#143),#81,.T.);
#950=ADVANCED_FACE('',(#144),#82,.T.);
#951=ADVANCED_FACE('',(#145),#83,.T.);
#952=ADVANCED_FACE('',(#146),#84,.T.);
#953=ADVANCED_FACE('',(#147),#85,.T.);
#954=ADVANCED_FACE('',(#148),#86,.T.);
#955=ADVANCED_FACE('',(#149),#87,.T.);
#956=ADVANCED_FACE('',(#150),#88,.T.);
#957=ADVANCED_FACE('',(#151),#895,.F.);
#958=ADVANCED_FACE('',(#152),#89,.T.);
#959=ADVANCED_FACE('',(#153),#896,.F.);
#960=ADVANCED_FACE('',(#154),#90,.F.);
#961=CLOSED_SHELL('',(#897,#898,#899,#900,#901,#902,#903,#904,#905,#906,
#907,#908,#909,#910,#911,#912,#913,#914,#915,#916,#917,#918,#919,#920,#921,
#922,#923,#924,#925,#926,#927,#928));
#962=CLOSED_SHELL('',(#929,#930,#931,#932,#933,#934,#935,#936,#937,#938,
#939,#940,#941,#942,#943,#944,#945,#946,#947,#948,#949,#950,#951,#952,#953,
#954,#955,#956,#957,#958,#959,#960));
#963=DERIVED_UNIT_ELEMENT(#967,1.);
#964=DERIVED_UNIT_ELEMENT(#1609,-3.);
#965=DERIVED_UNIT_ELEMENT(#967,1.);
#966=DERIVED_UNIT_ELEMENT(#1609,-3.);
#967=(
MASS_UNIT()
NAMED_UNIT(*)
SI_UNIT(.KILO.,.GRAM.)
);
#968=DERIVED_UNIT((#963,#964));
#969=DERIVED_UNIT((#965,#966));
#970=MEASURE_REPRESENTATION_ITEM('density measure',
POSITIVE_RATIO_MEASURE(7850.),#968);
#971=MEASURE_REPRESENTATION_ITEM('density measure',
POSITIVE_RATIO_MEASURE(7850.),#969);
#972=PROPERTY_DEFINITION_REPRESENTATION(#982,#976);
#973=PROPERTY_DEFINITION_REPRESENTATION(#983,#977);
#974=PROPERTY_DEFINITION_REPRESENTATION(#984,#978);
#975=PROPERTY_DEFINITION_REPRESENTATION(#985,#979);
#976=REPRESENTATION('material name',(#980),#1603);
#977=REPRESENTATION('density',(#970),#1603);
#978=REPRESENTATION('material name',(#981),#1604);
#979=REPRESENTATION('density',(#971),#1604);
#980=DESCRIPTIVE_REPRESENTATION_ITEM('Steel','Steel');
#981=DESCRIPTIVE_REPRESENTATION_ITEM('Steel','Steel');
#982=PROPERTY_DEFINITION('material property','material name',#1626);
#983=PROPERTY_DEFINITION('material property','density of part',#1626);
#984=PROPERTY_DEFINITION('material property','material name',#1627);
#985=PROPERTY_DEFINITION('material property','density of part',#1627);
#986=AXIS2_PLACEMENT_3D('',#1339,#1067,#1068);
#987=AXIS2_PLACEMENT_3D('',#1340,#1069,#1070);
#988=AXIS2_PLACEMENT_3D('',#1341,#1071,#1072);
#989=AXIS2_PLACEMENT_3D('',#1343,#1073,#1074);
#990=AXIS2_PLACEMENT_3D('',#1346,#1076,#1077);
#991=AXIS2_PLACEMENT_3D('',#1347,#1078,#1079);
#992=AXIS2_PLACEMENT_3D('',#1348,#1080,#1081);
#993=AXIS2_PLACEMENT_3D('',#1350,#1082,#1083);
#994=AXIS2_PLACEMENT_3D('',#1353,#1085,#1086);
#995=AXIS2_PLACEMENT_3D('',#1354,#1087,#1088);
#996=AXIS2_PLACEMENT_3D('',#1355,#1089,#1090);
#997=AXIS2_PLACEMENT_3D('',#1357,#1091,#1092);
#998=AXIS2_PLACEMENT_3D('',#1360,#1094,#1095);
#999=AXIS2_PLACEMENT_3D('',#1361,#1096,#1097);
#1000=AXIS2_PLACEMENT_3D('',#1362,#1098,#1099);
#1001=AXIS2_PLACEMENT_3D('',#1371,#1104,#1105);
#1002=AXIS2_PLACEMENT_3D('',#1380,#1110,#1111);
#1003=AXIS2_PLACEMENT_3D('',#1389,#1116,#1117);
#1004=AXIS2_PLACEMENT_3D('',#1395,#1121,#1122);
#1005=AXIS2_PLACEMENT_3D('',#1398,#1125,#1126);
#1006=AXIS2_PLACEMENT_3D('',#1404,#1130,#1131);
#1007=AXIS2_PLACEMENT_3D('',#1407,#1134,#1135);
#1008=AXIS2_PLACEMENT_3D('',#1410,#1138,#1139);
#1009=AXIS2_PLACEMENT_3D('',#1416,#1143,#1144);
#1010=AXIS2_PLACEMENT_3D('',#1420,#1147,#1148);
#1011=AXIS2_PLACEMENT_3D('',#1424,#1151,#1152);
#1012=AXIS2_PLACEMENT_3D('',#1428,#1155,#1156);
#1013=AXIS2_PLACEMENT_3D('',#1429,#1157,#1158);
#1014=AXIS2_PLACEMENT_3D('',#1433,#1161,#1162);
#1015=AXIS2_PLACEMENT_3D('',#1440,#1166,#1167);
#1016=AXIS2_PLACEMENT_3D('',#1444,#1170,#1171);
#1017=AXIS2_PLACEMENT_3D('',#1450,#1175,#1176);
#1018=AXIS2_PLACEMENT_3D('',#1453,#1179,#1180);
#1019=AXIS2_PLACEMENT_3D('',#1455,#1182,#1183);
#1020=AXIS2_PLACEMENT_3D('',#1457,#1185,#1186);
#1021=AXIS2_PLACEMENT_3D('',#1459,#1188,#1189);
#1022=AXIS2_PLACEMENT_3D('',#1462,#1192,#1193);
#1023=AXIS2_PLACEMENT_3D('',#1465,#1196,#1197);
#1024=AXIS2_PLACEMENT_3D('',#1466,#1198,#1199);
#1025=AXIS2_PLACEMENT_3D('',#1467,#1200,#1201);
#1026=AXIS2_PLACEMENT_3D('',#1468,#1202,#1203);
#1027=AXIS2_PLACEMENT_3D('',#1469,#1204,#1205);
#1028=AXIS2_PLACEMENT_3D('',#1471,#1206,#1207);
#1029=AXIS2_PLACEMENT_3D('',#1474,#1209,#1210);
#1030=AXIS2_PLACEMENT_3D('',#1475,#1211,#1212);
#1031=AXIS2_PLACEMENT_3D('',#1476,#1213,#1214);
#1032=AXIS2_PLACEMENT_3D('',#1485,#1219,#1220);
#1033=AXIS2_PLACEMENT_3D('',#1491,#1224,#1225);
#1034=AXIS2_PLACEMENT_3D('',#1500,#1230,#1231);
#1035=AXIS2_PLACEMENT_3D('',#1506,#1235,#1236);
#1036=AXIS2_PLACEMENT_3D('',#1512,#1240,#1241);
#1037=AXIS2_PLACEMENT_3D('',#1518,#1245,#1246);
#1038=AXIS2_PLACEMENT_3D('',#1521,#1249,#1250);
#1039=AXIS2_PLACEMENT_3D('',#1524,#1253,#1254);
#1040=AXIS2_PLACEMENT_3D('',#1530,#1258,#1259);
#1041=AXIS2_PLACEMENT_3D('',#1534,#1262,#1263);
#1042=AXIS2_PLACEMENT_3D('',#1538,#1266,#1267);
#1043=AXIS2_PLACEMENT_3D('',#1542,#1270,#1271);
#1044=AXIS2_PLACEMENT_3D('',#1544,#1272,#1273);
#1045=AXIS2_PLACEMENT_3D('',#1546,#1274,#1275);
#1046=AXIS2_PLACEMENT_3D('',#1547,#1276,#1277);
#1047=AXIS2_PLACEMENT_3D('',#1551,#1280,#1281);
#1048=AXIS2_PLACEMENT_3D('',#1558,#1285,#1286);
#1049=AXIS2_PLACEMENT_3D('',#1561,#1289,#1290);
#1050=AXIS2_PLACEMENT_3D('',#1564,#1293,#1294);
#1051=AXIS2_PLACEMENT_3D('',#1568,#1297,#1298);
#1052=AXIS2_PLACEMENT_3D('',#1570,#1300,#1301);
#1053=AXIS2_PLACEMENT_3D('',#1576,#1305,#1306);
#1054=AXIS2_PLACEMENT_3D('',#1579,#1309,#1310);
#1055=AXIS2_PLACEMENT_3D('',#1581,#1312,#1313);
#1056=AXIS2_PLACEMENT_3D('',#1583,#1315,#1316);
#1057=AXIS2_PLACEMENT_3D('',#1584,#1317,#1318);
#1058=AXIS2_PLACEMENT_3D('',#1585,#1319,#1320);
#1059=AXIS2_PLACEMENT_3D('',#1587,#1321,#1322);
#1060=AXIS2_PLACEMENT_3D('',#1588,#1323,#1324);
#1061=AXIS2_PLACEMENT_3D('',#1590,#1326,#1327);
#1062=AXIS2_PLACEMENT_3D('',#1592,#1328,#1329);
#1063=AXIS2_PLACEMENT_3D('',#1593,#1330,#1331);
#1064=AXIS2_PLACEMENT_3D('',#1595,#1333,#1334);
#1065=AXIS2_PLACEMENT_3D('',#1596,#1335,#1336);
#1066=AXIS2_PLACEMENT_3D('',#1597,#1337,#1338);
#1067=DIRECTION('axis',(0.,0.,1.));
#1068=DIRECTION('refdir',(1.,0.,0.));
#1069=DIRECTION('axis',(0.,0.,1.));
#1070=DIRECTION('refdir',(1.,0.,0.));
#1071=DIRECTION('center_axis',(0.,0.,1.));
#1072=DIRECTION('ref_axis',(1.,0.,0.));
#1073=DIRECTION('center_axis',(0.,0.,1.));
#1074=DIRECTION('ref_axis',(1.,0.,0.));
#1075=DIRECTION('',(0.,0.,1.));
#1076=DIRECTION('center_axis',(0.,0.,1.));
#1077=DIRECTION('ref_axis',(1.,0.,0.));
#1078=DIRECTION('center_axis',(0.,0.,1.));
#1079=DIRECTION('ref_axis',(1.,0.,0.));
#1080=DIRECTION('center_axis',(0.,0.,1.));
#1081=DIRECTION('ref_axis',(1.,0.,0.));
#1082=DIRECTION('center_axis',(0.,0.,1.));
#1083=DIRECTION('ref_axis',(1.,0.,0.));
#1084=DIRECTION('',(0.,0.,1.));
#1085=DIRECTION('center_axis',(0.,0.,1.));
#1086=DIRECTION('ref_axis',(1.,0.,0.));
#1087=DIRECTION('center_axis',(0.,0.,1.));
#1088=DIRECTION('ref_axis',(1.,0.,0.));
#1089=DIRECTION('center_axis',(0.,0.,1.));
#1090=DIRECTION('ref_axis',(1.,0.,0.));
#1091=DIRECTION('center_axis',(0.,0.,1.));
#1092=DIRECTION('ref_axis',(1.,0.,0.));
#1093=DIRECTION('',(0.,0.,1.));
#1094=DIRECTION('center_axis',(0.,0.,1.));
#1095=DIRECTION('ref_axis',(1.,0.,0.));
#1096=DIRECTION('center_axis',(0.,0.,1.));
#1097=DIRECTION('ref_axis',(1.,0.,0.));
#1098=DIRECTION('center_axis',(0.707106781186549,0.,-0.707106781186546));
#1099=DIRECTION('ref_axis',(-0.707106781186546,0.,-0.707106781186549));
#1100=DIRECTION('',(0.,-1.,0.));
#1101=DIRECTION('',(-0.678598344545847,0.281084637714818,-0.678598344545848));
#1102=DIRECTION('',(0.,1.,0.));
#1103=DIRECTION('',(-0.678598344545846,-0.281084637714821,-0.678598344545848));
#1104=DIRECTION('center_axis',(0.,-0.707106781186547,-0.707106781186548));
#1105=DIRECTION('ref_axis',(-1.,0.,0.));
#1106=DIRECTION('',(-1.,0.,0.));
#1107=DIRECTION('',(0.281084637714821,0.678598344545846,-0.678598344545847));
#1108=DIRECTION('',(1.,0.,0.));
#1109=DIRECTION('',(0.281084637714815,-0.678598344545849,0.678598344545847));
#1110=DIRECTION('center_axis',(-0.499999999999996,0.499999999999996,-0.707106781186553));
#1111=DIRECTION('ref_axis',(-0.81649658092773,0.,0.57735026918962));
#1112=DIRECTION('',(-0.707106781186548,-0.707106781186548,0.));
#1113=DIRECTION('',(-0.678598344545845,0.281084637714832,0.678598344545844));
#1114=DIRECTION('',(0.707106781186548,0.707106781186548,0.));
#1115=DIRECTION('',(0.281084637714835,-0.678598344545843,-0.678598344545845));
#1116=DIRECTION('center_axis',(-0.707106781186547,0.,-0.707106781186548));
#1117=DIRECTION('ref_axis',(-0.707106781186548,0.,0.707106781186547));
#1118=DIRECTION('',(0.,-1.,0.));
#1119=DIRECTION('',(-0.67859834454585,-0.281084637714817,0.678598344545846));
#1120=DIRECTION('',(0.,1.,0.));
#1121=DIRECTION('center_axis',(-0.5,-0.500000000000001,-0.707106781186547));
#1122=DIRECTION('ref_axis',(-0.816496580927725,0.,0.577350269189627));
#1123=DIRECTION('',(-0.707106781186548,0.707106781186547,0.));
#1124=DIRECTION('',(0.707106781186548,-0.707106781186547,0.));
#1125=DIRECTION('center_axis',(0.,0.707106781186549,-0.707106781186546));
#1126=DIRECTION('ref_axis',(-1.,0.,0.));
#1127=DIRECTION('',(-1.,0.,0.));
#1128=DIRECTION('',(1.,0.,0.));
#1129=DIRECTION('',(-0.281084637714821,-0.678598344545846,-0.678598344545848));
#1130=DIRECTION('center_axis',(0.5,-0.500000000000001,-0.707106781186547));
#1131=DIRECTION('ref_axis',(-0.816496580927726,0.,-0.577350269189626));
#1132=DIRECTION('',(-0.707106781186548,-0.707106781186547,0.));
#1133=DIRECTION('',(0.707106781186548,0.707106781186547,0.));
#1134=DIRECTION('center_axis',(0.5,0.5,-0.707106781186548));
#1135=DIRECTION('ref_axis',(-0.816496580927726,0.,-0.577350269189625));
#1136=DIRECTION('',(-0.707106781186547,0.707106781186547,0.));
#1137=DIRECTION('',(0.707106781186548,-0.707106781186548,0.));
#1138=DIRECTION('center_axis',(1.,0.,0.));
#1139=DIRECTION('ref_axis',(0.,0.,-1.));
#1140=DIRECTION('',(0.,0.,-1.));
#1141=DIRECTION('',(0.,1.,0.));
#1142=DIRECTION('',(0.,0.,1.));
#1143=DIRECTION('center_axis',(0.707106781186548,0.707106781186548,0.));
#1144=DIRECTION('ref_axis',(0.,0.,-1.));
#1145=DIRECTION('',(0.,0.,1.));
#1146=DIRECTION('',(0.707106781186547,-0.707106781186547,-7.85046229341887E-16));
#1147=DIRECTION('center_axis',(0.,1.,0.));
#1148=DIRECTION('ref_axis',(0.,0.,1.));
#1149=DIRECTION('',(0.,0.,-1.));
#1150=DIRECTION('',(-1.,0.,0.));
#1151=DIRECTION('center_axis',(-0.707106781186548,0.707106781186548,0.));
#1152=DIRECTION('ref_axis',(0.,0.,1.));
#1153=DIRECTION('',(0.,0.,1.));
#1154=DIRECTION('',(0.707106781186547,0.707106781186547,0.));
#1155=DIRECTION('center_axis',(0.,0.,-1.));
#1156=DIRECTION('ref_axis',(-1.,0.,0.));
#1157=DIRECTION('center_axis',(-0.577350269189626,0.577350269189626,0.577350269189626));
#1158=DIRECTION('ref_axis',(0.707106781186548,0.,0.707106781186547));
#1159=DIRECTION('',(-0.707106781186548,0.,-0.707106781186547));
#1160=DIRECTION('',(0.,-0.707106781186548,0.707106781186547));
#1161=DIRECTION('center_axis',(-0.577350269189626,-0.577350269189626,0.577350269189626));
#1162=DIRECTION('ref_axis',(0.707106781186548,0.,0.707106781186547));
#1163=DIRECTION('',(-0.707106781186548,0.707106781186547,0.));
#1164=DIRECTION('',(0.,-0.707106781186548,-0.707106781186547));
#1165=DIRECTION('',(0.707106781186548,0.,0.707106781186547));
#1166=DIRECTION('center_axis',(0.577350269189626,0.577350269189625,0.577350269189626));
#1167=DIRECTION('ref_axis',(0.707106781186548,0.,-0.707106781186548));
#1168=DIRECTION('',(0.,0.707106781186548,-0.707106781186547));
#1169=DIRECTION('',(-0.707106781186547,0.,0.707106781186547));
#1170=DIRECTION('center_axis',(0.577350269189626,-0.577350269189626,0.577350269189626));
#1171=DIRECTION('ref_axis',(0.707106781186548,0.,-0.707106781186547));
#1172=DIRECTION('',(0.707106781186547,0.,-0.707106781186547));
#1173=DIRECTION('',(0.,0.707106781186548,0.707106781186547));
#1174=DIRECTION('',(-0.707106781186548,-0.707106781186547,7.85046229341887E-16));
#1175=DIRECTION('center_axis',(0.,-0.707106781186547,0.707106781186548));
#1176=DIRECTION('ref_axis',(1.,0.,0.));
#1177=DIRECTION('',(1.,0.,0.));
#1178=DIRECTION('',(-1.,0.,0.));
#1179=DIRECTION('center_axis',(0.707106781186547,-0.707106781186548,0.));
#1180=DIRECTION('ref_axis',(0.,0.,-1.));
#1181=DIRECTION('',(0.,0.,-1.));
#1182=DIRECTION('center_axis',(0.707106781186548,0.,0.707106781186548));
#1183=DIRECTION('ref_axis',(0.707106781186548,0.,-0.707106781186548));
#1184=DIRECTION('',(0.,-1.,0.));
#1185=DIRECTION('center_axis',(0.,0.707106781186547,0.707106781186548));
#1186=DIRECTION('ref_axis',(1.,0.,0.));
#1187=DIRECTION('',(1.,0.,0.));
#1188=DIRECTION('center_axis',(-0.707106781186547,0.,0.707106781186548));
#1189=DIRECTION('ref_axis',(0.707106781186548,0.,0.707106781186547));
#1190=DIRECTION('',(0.,-1.,0.));
#1191=DIRECTION('',(0.,1.,0.));
#1192=DIRECTION('center_axis',(-0.707106781186547,-0.707106781186548,0.));
#1193=DIRECTION('ref_axis',(0.,0.,1.));
#1194=DIRECTION('',(0.,0.,1.));
#1195=DIRECTION('',(0.,0.,-1.));
#1196=DIRECTION('center_axis',(0.,1.,0.));
#1197=DIRECTION('ref_axis',(1.,0.,0.));
#1198=DIRECTION('center_axis',(-1.,0.,0.));
#1199=DIRECTION('ref_axis',(0.,0.,1.));
#1200=DIRECTION('center_axis',(0.,0.,1.));
#1201=DIRECTION('ref_axis',(1.,0.,0.));
#1202=DIRECTION('axis',(0.,0.,1.));
#1203=DIRECTION('refdir',(1.,0.,0.));
#1204=DIRECTION('center_axis',(0.,0.,-1.));
#1205=DIRECTION('ref_axis',(1.,0.,0.));
#1206=DIRECTION('center_axis',(0.,0.,-1.));
#1207=DIRECTION('ref_axis',(1.,0.,0.));
#1208=DIRECTION('',(0.,0.,-1.));
#1209=DIRECTION('center_axis',(0.,0.,-1.));
#1210=DIRECTION('ref_axis',(1.,0.,0.));
#1211=DIRECTION('center_axis',(0.,0.,1.));
#1212=DIRECTION('ref_axis',(1.,0.,0.));
#1213=DIRECTION('center_axis',(0.707106781186549,0.,0.707106781186546));
#1214=DIRECTION('ref_axis',(0.707106781186546,0.,-0.707106781186549));
#1215=DIRECTION('',(0.,-1.,0.));
#1216=DIRECTION('',(0.678598344545845,-0.281084637714824,-0.678598344545847));
#1217=DIRECTION('',(0.,1.,0.));
#1218=DIRECTION('',(0.678598344545841,0.281084637714843,-0.678598344545843));
#1219=DIRECTION('center_axis',(0.5,-0.500000000000001,0.707106781186547));
#1220=DIRECTION('ref_axis',(0.816496580927725,0.,-0.577350269189627));
#1221=DIRECTION('',(-0.707106781186548,-0.707106781186547,0.));
#1222=DIRECTION('',(0.281084637714821,-0.678598344545847,-0.678598344545847));
#1223=DIRECTION('',(0.707106781186548,0.707106781186547,0.));
#1224=DIRECTION('center_axis',(0.,0.707106781186549,0.707106781186546));
#1225=DIRECTION('ref_axis',(1.,0.,0.));
#1226=DIRECTION('',(-1.,0.,0.));
#1227=DIRECTION('',(0.281084637714816,-0.678598344545846,0.67859834454585));
#1228=DIRECTION('',(1.,0.,0.));
#1229=DIRECTION('',(0.281084637714843,0.678598344545841,-0.678598344545843));
#1230=DIRECTION('center_axis',(0.,-0.707106781186548,0.707106781186547));
#1231=DIRECTION('ref_axis',(1.,0.,0.));
#1232=DIRECTION('',(-1.,0.,0.));
#1233=DIRECTION('',(-0.281084637714815,-0.678598344545848,-0.678598344545848));
#1234=DIRECTION('',(1.,0.,0.));
#1235=DIRECTION('center_axis',(-0.5,0.5,0.707106781186547));
#1236=DIRECTION('ref_axis',(0.816496580927726,0.,0.577350269189626));
#1237=DIRECTION('',(-0.707106781186548,-0.707106781186548,0.));
#1238=DIRECTION('',(0.678598344545845,-0.281084637714821,0.678598344545848));
#1239=DIRECTION('',(0.707106781186548,0.707106781186548,0.));
#1240=DIRECTION('center_axis',(-0.707106781186549,0.,0.707106781186546));
#1241=DIRECTION('ref_axis',(0.707106781186546,0.,0.707106781186549));
#1242=DIRECTION('',(0.,-1.,0.));
#1243=DIRECTION('',(0.678598344545846,0.281084637714819,0.678598344545849));
#1244=DIRECTION('',(0.,1.,0.));
#1245=DIRECTION('center_axis',(-0.5,-0.500000000000001,0.707106781186547));
#1246=DIRECTION('ref_axis',(0.816496580927725,0.,0.577350269189627));
#1247=DIRECTION('',(-0.707106781186548,0.707106781186547,0.));
#1248=DIRECTION('',(0.707106781186548,-0.707106781186547,0.));
#1249=DIRECTION('center_axis',(0.499999999999994,0.499999999999994,0.707106781186556));
#1250=DIRECTION('ref_axis',(0.816496580927732,0.,-0.577350269189617));
#1251=DIRECTION('',(-0.707106781186548,0.707106781186548,0.));
#1252=DIRECTION('',(0.707106781186548,-0.707106781186548,0.));
#1253=DIRECTION('center_axis',(-0.707106781186547,-0.707106781186548,0.));
#1254=DIRECTION('ref_axis',(0.,0.,1.));
#1255=DIRECTION('',(0.,0.,-1.));
#1256=DIRECTION('',(0.707106781186548,-0.707106781186547,-7.85046229341887E-16));
#1257=DIRECTION('',(0.,0.,1.));
#1258=DIRECTION('center_axis',(-1.,0.,0.));
#1259=DIRECTION('ref_axis',(0.,0.,1.));
#1260=DIRECTION('',(0.,0.,1.));
#1261=DIRECTION('',(0.,1.,0.));
#1262=DIRECTION('center_axis',(-0.707106781186548,0.707106781186548,0.));
#1263=DIRECTION('ref_axis',(0.,0.,1.));
#1264=DIRECTION('',(0.,0.,-1.));
#1265=DIRECTION('',(-0.707106781186547,-0.707106781186547,7.85046229341887E-16));
#1266=DIRECTION('center_axis',(0.,1.,0.));
#1267=DIRECTION('ref_axis',(0.,0.,1.));
#1268=DIRECTION('',(0.,0.,1.));
#1269=DIRECTION('',(1.,0.,0.));
#1270=DIRECTION('center_axis',(0.,0.,1.));
#1271=DIRECTION('ref_axis',(1.,0.,0.));
#1272=DIRECTION('center_axis',(0.,0.,-1.));
#1273=DIRECTION('ref_axis',(1.,0.,0.));
#1274=DIRECTION('center_axis',(0.,0.,-1.));
#1275=DIRECTION('ref_axis',(1.,0.,0.));
#1276=DIRECTION('center_axis',(-0.577350269189626,-0.577350269189626,-0.577350269189626));
#1277=DIRECTION('ref_axis',(-0.707106781186548,0.,0.707106781186548));
#1278=DIRECTION('',(0.,0.707106781186548,-0.707106781186547));
#1279=DIRECTION('',(-0.707106781186547,0.,0.707106781186547));
#1280=DIRECTION('center_axis',(0.577350269189625,-0.577350269189626,-0.577350269189626));
#1281=DIRECTION('ref_axis',(-0.707106781186548,0.,-0.707106781186547));
#1282=DIRECTION('',(-0.707106781186548,0.,-0.707106781186547));
#1283=DIRECTION('',(0.707106781186548,0.707106781186547,0.));
#1284=DIRECTION('',(0.,-0.707106781186548,0.707106781186547));
#1285=DIRECTION('center_axis',(0.707106781186547,-0.707106781186548,0.));
#1286=DIRECTION('ref_axis',(0.,0.,-1.));
#1287=DIRECTION('',(0.,0.,-1.));
#1288=DIRECTION('',(0.,0.,1.));
#1289=DIRECTION('center_axis',(0.,-0.707106781186547,-0.707106781186548));
#1290=DIRECTION('ref_axis',(-1.,0.,0.));
#1291=DIRECTION('',(1.,0.,0.));
#1292=DIRECTION('',(-1.,0.,0.));
#1293=DIRECTION('center_axis',(-0.577350269189626,0.577350269189625,-0.577350269189626));
#1294=DIRECTION('ref_axis',(-0.707106781186548,0.,0.707106781186548));
#1295=DIRECTION('',(0.,0.707106781186548,0.707106781186547));
#1296=DIRECTION('',(0.707106781186547,0.,-0.707106781186547));
#1297=DIRECTION('center_axis',(-0.707106781186548,0.,-0.707106781186548));
#1298=DIRECTION('ref_axis',(-0.707106781186548,0.,0.707106781186548));
#1299=DIRECTION('',(0.,-1.,0.));
#1300=DIRECTION('center_axis',(0.577350269189626,0.577350269189626,-0.577350269189626));
#1301=DIRECTION('ref_axis',(-0.707106781186548,0.,-0.707106781186547));
#1302=DIRECTION('',(-0.707106781186547,0.707106781186547,0.));
#1303=DIRECTION('',(0.707106781186548,0.,0.707106781186547));
#1304=DIRECTION('',(0.,-0.707106781186548,-0.707106781186547));
#1305=DIRECTION('center_axis',(0.707106781186547,0.,-0.707106781186548));
#1306=DIRECTION('ref_axis',(-0.707106781186548,0.,-0.707106781186547));
#1307=DIRECTION('',(0.,-1.,0.));
#1308=DIRECTION('',(0.,1.,0.));
#1309=DIRECTION('center_axis',(0.,0.707106781186547,-0.707106781186548));
#1310=DIRECTION('ref_axis',(-1.,0.,0.));
#1311=DIRECTION('',(-1.,0.,0.));
#1312=DIRECTION('center_axis',(0.707106781186548,0.707106781186548,0.));
#1313=DIRECTION('ref_axis',(0.,0.,-1.));
#1314=DIRECTION('',(0.,0.,-1.));
#1315=DIRECTION('center_axis',(1.,0.,0.));
#1316=DIRECTION('ref_axis',(0.,0.,-1.));
#1317=DIRECTION('center_axis',(0.,0.,-1.));
#1318=DIRECTION('ref_axis',(-1.,0.,0.));
#1319=DIRECTION('center_axis',(0.,0.,1.));
#1320=DIRECTION('ref_axis',(1.,0.,0.));
#1321=DIRECTION('center_axis',(0.,0.,-1.));
#1322=DIRECTION('ref_axis',(1.,0.,0.));
#1323=DIRECTION('center_axis',(0.,0.,1.));
#1324=DIRECTION('ref_axis',(1.,0.,0.));
#1325=DIRECTION('',(0.,0.,1.));
#1326=DIRECTION('center_axis',(0.,0.,1.));
#1327=DIRECTION('ref_axis',(1.,0.,0.));
#1328=DIRECTION('center_axis',(0.,0.,-1.));
#1329=DIRECTION('ref_axis',(1.,0.,0.));
#1330=DIRECTION('center_axis',(0.,0.,1.));
#1331=DIRECTION('ref_axis',(1.,0.,0.));
#1332=DIRECTION('',(0.,0.,1.));
#1333=DIRECTION('center_axis',(0.,1.,0.));
#1334=DIRECTION('ref_axis',(1.,0.,0.));
#1335=DIRECTION('',(0.,0.,1.));
#1336=DIRECTION('',(1.,0.,0.));
#1337=DIRECTION('',(0.,0.,1.));
#1338=DIRECTION('',(1.,0.,0.));
#1339=CARTESIAN_POINT('',(0.,0.,0.));
#1340=CARTESIAN_POINT('',(0.,0.,0.));
#1341=CARTESIAN_POINT('Origin',(2.,1.,0.));
#1342=CARTESIAN_POINT('',(1.5,1.,0.));
#1343=CARTESIAN_POINT('Origin',(2.,1.,0.));
#1344=CARTESIAN_POINT('',(1.5,1.,0.25));
#1345=CARTESIAN_POINT('',(1.5,1.,0.));
#1346=CARTESIAN_POINT('Origin',(2.,1.,0.25));
#1347=CARTESIAN_POINT('Origin',(2.,1.,0.25));
#1348=CARTESIAN_POINT('Origin',(2.625,1.7244094488189,0.));
#1349=CARTESIAN_POINT('',(2.46062992125984,1.7244094488189,0.));
#1350=CARTESIAN_POINT('Origin',(2.625,1.7244094488189,0.));
#1351=CARTESIAN_POINT('',(2.46062992125984,1.7244094488189,0.31496062992126));
#1352=CARTESIAN_POINT('',(2.46062992125984,1.7244094488189,0.));
#1353=CARTESIAN_POINT('Origin',(2.625,1.7244094488189,0.31496062992126));
#1354=CARTESIAN_POINT('Origin',(2.625,1.7244094488189,0.31496062992126));
#1355=CARTESIAN_POINT('Origin',(1.375,1.7244094488189,0.));
#1356=CARTESIAN_POINT('',(1.21062992125984,1.7244094488189,0.));
#1357=CARTESIAN_POINT('Origin',(1.375,1.7244094488189,0.));
#1358=CARTESIAN_POINT('',(1.21062992125984,1.7244094488189,0.31496062992126));
#1359=CARTESIAN_POINT('',(1.21062992125984,1.7244094488189,0.));
#1360=CARTESIAN_POINT('Origin',(1.375,1.7244094488189,0.31496062992126));
#1361=CARTESIAN_POINT('Origin',(1.375,1.7244094488189,0.31496062992126));
#1362=CARTESIAN_POINT('Origin',(2.98031496062992,0.,0.0196850393700787));
#1363=CARTESIAN_POINT('',(3.,1.92125984251968,0.0393700787401574));
#1364=CARTESIAN_POINT('',(3.,0.078740157480315,0.0393700787401574));
#1365=CARTESIAN_POINT('',(3.,0.,0.0393700787401575));
#1366=CARTESIAN_POINT('',(2.96062992125984,0.0950477780461847,0.));
#1367=CARTESIAN_POINT('',(3.,0.078740157480315,0.0393700787401574));
#1368=CARTESIAN_POINT('',(2.96062992125984,1.90495222195381,0.));
#1369=CARTESIAN_POINT('',(2.96062992125984,0.,0.));
#1370=CARTESIAN_POINT('',(3.,1.92125984251968,0.0393700787401574));
#1371=CARTESIAN_POINT('Origin',(2.5,0.0196850393700787,0.0196850393700787));
#1372=CARTESIAN_POINT('',(2.92125984251968,0.,0.0393700787401574));
#1373=CARTESIAN_POINT('',(1.07874015748032,0.,0.0393700787401575));
#1374=CARTESIAN_POINT('',(2.5,0.,0.0393700787401575));
#1375=CARTESIAN_POINT('',(1.09504777804618,0.0393700787401575,0.));
#1376=CARTESIAN_POINT('',(1.07874015748032,0.,0.0393700787401575));
#1377=CARTESIAN_POINT('',(2.90495222195381,0.0393700787401575,0.));
#1378=CARTESIAN_POINT('',(2.5,0.0393700787401575,0.));
#1379=CARTESIAN_POINT('',(2.90495222195381,0.0393700787401575,0.));
#1380=CARTESIAN_POINT('Origin',(1.05328950356666,1.94671049643334,0.0196850393700787));
#1381=CARTESIAN_POINT('',(1.09504777804619,1.96062992125984,0.));
#1382=CARTESIAN_POINT('',(1.03937007874016,1.90495222195381,0.));
#1383=CARTESIAN_POINT('',(1.06720892839317,1.93279107160683,0.));
#1384=CARTESIAN_POINT('',(1.,1.92125984251968,0.0393700787401575));
#1385=CARTESIAN_POINT('',(1.03937007874016,1.90495222195381,0.));
#1386=CARTESIAN_POINT('',(1.07874015748032,2.,0.0393700787401575));
#1387=CARTESIAN_POINT('',(1.03937007874016,1.96062992125984,0.0393700787401575));
#1388=CARTESIAN_POINT('',(1.07874015748032,2.,0.0393700787401575));
#1389=CARTESIAN_POINT('Origin',(1.01968503937008,0.,0.0196850393700787));
#1390=CARTESIAN_POINT('',(1.03937007874016,0.0950477780461847,0.));
#1391=CARTESIAN_POINT('',(1.03937007874016,0.,0.));
#1392=CARTESIAN_POINT('',(1.,0.078740157480315,0.0393700787401575));
#1393=CARTESIAN_POINT('',(1.03937007874016,0.0950477780461847,0.));
#1394=CARTESIAN_POINT('',(1.,0.,0.0393700787401575));
#1395=CARTESIAN_POINT('Origin',(1.55328950356666,-0.446710496433336,0.0196850393700787));
#1396=CARTESIAN_POINT('',(1.53937007874016,-0.460629921259842,0.0393700787401575));
#1397=CARTESIAN_POINT('',(1.56720892839317,-0.432791071606829,0.));
#1398=CARTESIAN_POINT('Origin',(2.5,1.98031496062992,0.0196850393700787));
#1399=CARTESIAN_POINT('',(2.90495222195381,1.96062992125984,0.));
#1400=CARTESIAN_POINT('',(2.5,1.96062992125984,0.));
#1401=CARTESIAN_POINT('',(2.92125984251968,2.,0.0393700787401574));
#1402=CARTESIAN_POINT('',(2.5,2.,0.0393700787401575));
#1403=CARTESIAN_POINT('',(2.92125984251968,2.,0.0393700787401574));
#1404=CARTESIAN_POINT('Origin',(2.94671049643334,0.0532895035666643,0.0196850393700787));
#1405=CARTESIAN_POINT('',(2.96062992125984,0.0393700787401575,0.0393700787401575));
#1406=CARTESIAN_POINT('',(2.93279107160683,0.0672089283931711,0.));
#1407=CARTESIAN_POINT('Origin',(3.44671049643334,1.44671049643334,0.0196850393700787));
#1408=CARTESIAN_POINT('',(3.43279107160683,1.43279107160683,0.));
#1409=CARTESIAN_POINT('',(3.46062992125984,1.46062992125984,0.0393700787401575));
#1410=CARTESIAN_POINT('Origin',(3.,0.,0.75));
#1411=CARTESIAN_POINT('',(3.,1.92125984251968,0.671259842519685));
#1412=CARTESIAN_POINT('',(3.,1.92125984251968,0.5625));
#1413=CARTESIAN_POINT('',(3.,0.078740157480315,0.671259842519685));
#1414=CARTESIAN_POINT('',(3.,0.,0.671259842519685));
#1415=CARTESIAN_POINT('',(3.,0.078740157480315,0.5625));
#1416=CARTESIAN_POINT('Origin',(2.96062992125984,1.96062992125984,0.5625));
#1417=CARTESIAN_POINT('',(2.92125984251968,2.,0.671259842519685));
#1418=CARTESIAN_POINT('',(2.92125984251968,2.,0.5625));
#1419=CARTESIAN_POINT('',(2.92125984251968,2.,0.671259842519685));
#1420=CARTESIAN_POINT('Origin',(2.,2.,0.375));
#1421=CARTESIAN_POINT('',(1.07874015748032,2.,0.671259842519685));
#1422=CARTESIAN_POINT('',(1.07874015748032,2.,0.1875));
#1423=CARTESIAN_POINT('',(1.5,2.,0.671259842519685));
#1424=CARTESIAN_POINT('Origin',(1.03937007874016,1.96062992125984,0.1875));
#1425=CARTESIAN_POINT('',(1.,1.92125984251968,0.671259842519685));
#1426=CARTESIAN_POINT('',(1.,1.92125984251968,0.1875));
#1427=CARTESIAN_POINT('',(1.,1.92125984251968,0.671259842519685));
#1428=CARTESIAN_POINT('Origin',(3.,0.,0.));
#1429=CARTESIAN_POINT('Origin',(1.07874015748032,1.92125984251968,0.75));
#1430=CARTESIAN_POINT('',(1.07874015748032,1.92125984251968,0.75));
#1431=CARTESIAN_POINT('',(1.07874015748032,1.92125984251968,0.75));
#1432=CARTESIAN_POINT('',(1.07874015748032,2.,0.671259842519685));
#1433=CARTESIAN_POINT('Origin',(1.07874015748032,0.078740157480315,0.75));
#1434=CARTESIAN_POINT('',(1.07874015748032,0.,0.671259842519685));
#1435=CARTESIAN_POINT('',(1.,0.078740157480315,0.671259842519685));
#1436=CARTESIAN_POINT('',(1.07874015748032,0.,0.671259842519685));
#1437=CARTESIAN_POINT('',(1.07874015748032,0.078740157480315,0.75));
#1438=CARTESIAN_POINT('',(1.07874015748032,0.078740157480315,0.75));
#1439=CARTESIAN_POINT('',(1.,0.078740157480315,0.671259842519685));
#1440=CARTESIAN_POINT('Origin',(3.,1.92125984251968,0.671259842519685));
#1441=CARTESIAN_POINT('',(2.92125984251968,1.92125984251968,0.75));
#1442=CARTESIAN_POINT('',(2.92125984251968,1.92125984251968,0.75));
#1443=CARTESIAN_POINT('',(3.,1.92125984251968,0.671259842519685));
#1444=CARTESIAN_POINT('Origin',(2.92125984251968,0.,0.671259842519685));
#1445=CARTESIAN_POINT('',(2.92125984251968,0.078740157480315,0.75));
#1446=CARTESIAN_POINT('',(2.92125984251968,0.078740157480315,0.75));
#1447=CARTESIAN_POINT('',(2.92125984251968,0.,0.671259842519685));
#1448=CARTESIAN_POINT('',(2.92125984251968,0.,0.671259842519685));
#1449=CARTESIAN_POINT('',(3.,0.078740157480315,0.671259842519685));
#1450=CARTESIAN_POINT('Origin',(1.5,0.0393700787401575,0.710629921259842));
#1451=CARTESIAN_POINT('',(1.5,0.,0.671259842519685));
#1452=CARTESIAN_POINT('',(1.5,0.078740157480315,0.75));
#1453=CARTESIAN_POINT('Origin',(2.96062992125984,0.0393700787401575,0.5625));
#1454=CARTESIAN_POINT('',(2.92125984251968,0.,0.5625));
#1455=CARTESIAN_POINT('Origin',(2.96062992125984,0.,0.710629921259842));
#1456=CARTESIAN_POINT('',(2.92125984251968,0.,0.75));
#1457=CARTESIAN_POINT('Origin',(1.5,1.96062992125984,0.710629921259842));
#1458=CARTESIAN_POINT('',(1.5,1.92125984251968,0.75));
#1459=CARTESIAN_POINT('Origin',(1.03937007874016,0.,0.710629921259842));
#1460=CARTESIAN_POINT('',(1.,0.,0.671259842519685));
#1461=CARTESIAN_POINT('',(1.07874015748032,0.,0.75));
#1462=CARTESIAN_POINT('Origin',(1.03937007874016,0.0393700787401575,0.1875));
#1463=CARTESIAN_POINT('',(1.07874015748032,0.,0.1875));
#1464=CARTESIAN_POINT('',(1.,0.078740157480315,0.1875));
#1465=CARTESIAN_POINT('Origin',(2.,0.,0.375));
#1466=CARTESIAN_POINT('Origin',(1.,0.,0.));
#1467=CARTESIAN_POINT('Origin',(1.,0.,0.75));
#1468=CARTESIAN_POINT('',(0.,0.,0.));
#1469=CARTESIAN_POINT('Origin',(2.,1.,0.));
#1470=CARTESIAN_POINT('',(1.5,1.,0.));
#1471=CARTESIAN_POINT('Origin',(2.,1.,0.));
#1472=CARTESIAN_POINT('',(1.5,1.,-0.625));
#1473=CARTESIAN_POINT('',(1.5,1.,0.));
#1474=CARTESIAN_POINT('Origin',(2.,1.,-0.625));
#1475=CARTESIAN_POINT('Origin',(2.,1.,-0.625));
#1476=CARTESIAN_POINT('Origin',(2.98031496062992,0.,-0.0196850393700787));
#1477=CARTESIAN_POINT('',(2.96062992125984,1.90495222195381,0.));
#1478=CARTESIAN_POINT('',(2.96062992125984,0.0950477780461852,0.));
#1479=CARTESIAN_POINT('',(2.96062992125984,0.,0.));
#1480=CARTESIAN_POINT('',(3.,0.078740157480315,-0.0393700787401575));
#1481=CARTESIAN_POINT('',(2.96062992125984,0.095047778046185,0.));
#1482=CARTESIAN_POINT('',(3.,1.92125984251968,-0.0393700787401575));
#1483=CARTESIAN_POINT('',(3.,0.,-0.0393700787401575));
#1484=CARTESIAN_POINT('',(2.96062992125984,1.90495222195381,0.));
#1485=CARTESIAN_POINT('Origin',(2.44671049643333,-0.446710496433336,-0.0196850393700788));
#1486=CARTESIAN_POINT('',(2.90495222195381,0.0393700787401575,0.));
#1487=CARTESIAN_POINT('',(2.43279107160683,-0.432791071606829,0.));
#1488=CARTESIAN_POINT('',(2.92125984251968,0.,-0.0393700787401575));
#1489=CARTESIAN_POINT('',(2.90495222195381,0.0393700787401575,0.));
#1490=CARTESIAN_POINT('',(2.46062992125984,-0.460629921259842,-0.0393700787401575));
#1491=CARTESIAN_POINT('Origin',(1.5,1.98031496062992,-0.0196850393700787));
#1492=CARTESIAN_POINT('',(2.92125984251968,2.,-0.0393700787401575));
#1493=CARTESIAN_POINT('',(1.07874015748032,2.,-0.0393700787401575));
#1494=CARTESIAN_POINT('',(1.5,2.,-0.0393700787401575));
#1495=CARTESIAN_POINT('',(1.09504777804618,1.96062992125984,0.));
#1496=CARTESIAN_POINT('',(1.07874015748032,2.,-0.0393700787401575));
#1497=CARTESIAN_POINT('',(2.90495222195381,1.96062992125984,0.));
#1498=CARTESIAN_POINT('',(1.5,1.96062992125984,0.));
#1499=CARTESIAN_POINT('',(2.90495222195381,1.96062992125984,0.));
#1500=CARTESIAN_POINT('Origin',(1.5,0.0196850393700787,-0.0196850393700787));
#1501=CARTESIAN_POINT('',(1.09504777804618,0.0393700787401575,0.));
#1502=CARTESIAN_POINT('',(1.5,0.0393700787401575,0.));
#1503=CARTESIAN_POINT('',(1.07874015748032,0.,-0.0393700787401575));
#1504=CARTESIAN_POINT('',(1.09504777804618,0.0393700787401575,0.));
#1505=CARTESIAN_POINT('',(1.5,0.,-0.0393700787401575));
#1506=CARTESIAN_POINT('Origin',(0.553289503566664,1.44671049643334,-0.0196850393700788));
#1507=CARTESIAN_POINT('',(1.,1.92125984251968,-0.0393700787401575));
#1508=CARTESIAN_POINT('',(0.539370078740157,1.46062992125984,-0.0393700787401575));
#1509=CARTESIAN_POINT('',(1.03937007874016,1.90495222195381,0.));
#1510=CARTESIAN_POINT('',(1.,1.92125984251968,-0.0393700787401575));
#1511=CARTESIAN_POINT('',(0.567208928393171,1.43279107160683,0.));
#1512=CARTESIAN_POINT('Origin',(1.01968503937008,0.,-0.0196850393700787));
#1513=CARTESIAN_POINT('',(1.,0.078740157480315,-0.0393700787401575));
#1514=CARTESIAN_POINT('',(1.,0.,-0.0393700787401575));
#1515=CARTESIAN_POINT('',(1.03937007874016,0.0950477780461847,0.));
#1516=CARTESIAN_POINT('',(1.,0.078740157480315,-0.0393700787401575));
#1517=CARTESIAN_POINT('',(1.03937007874016,0.,0.));
#1518=CARTESIAN_POINT('Origin',(1.05328950356666,0.0532895035666643,-0.0196850393700787));
#1519=CARTESIAN_POINT('',(1.06720892839317,0.0672089283931711,0.));
#1520=CARTESIAN_POINT('',(1.03937007874016,0.0393700787401576,-0.0393700787401575));
#1521=CARTESIAN_POINT('Origin',(2.94671049643333,1.94671049643334,-0.0196850393700787));
#1522=CARTESIAN_POINT('',(2.96062992125984,1.96062992125984,-0.0393700787401575));
#1523=CARTESIAN_POINT('',(2.93279107160683,1.93279107160683,0.));
#1524=CARTESIAN_POINT('Origin',(1.03937007874016,0.0393700787401575,-0.5625));
#1525=CARTESIAN_POINT('',(1.,0.078740157480315,-0.671259842519685));
#1526=CARTESIAN_POINT('',(1.,0.078740157480315,-0.5625));
#1527=CARTESIAN_POINT('',(1.07874015748032,0.,-0.671259842519685));
#1528=CARTESIAN_POINT('',(1.,0.078740157480315,-0.671259842519685));
#1529=CARTESIAN_POINT('',(1.07874015748032,0.,-0.5625));
#1530=CARTESIAN_POINT('Origin',(1.,0.,-0.75));
#1531=CARTESIAN_POINT('',(1.,1.92125984251968,-0.671259842519685));
#1532=CARTESIAN_POINT('',(1.,1.92125984251968,-0.5625));
#1533=CARTESIAN_POINT('',(1.,0.,-0.671259842519685));
#1534=CARTESIAN_POINT('Origin',(1.03937007874016,1.96062992125984,-0.5625));
#1535=CARTESIAN_POINT('',(1.07874015748032,2.,-0.671259842519685));
#1536=CARTESIAN_POINT('',(1.07874015748032,2.,-0.5625));
#1537=CARTESIAN_POINT('',(1.07874015748032,2.,-0.671259842519685));
#1538=CARTESIAN_POINT('Origin',(2.,2.,-0.375));
#1539=CARTESIAN_POINT('',(2.92125984251968,2.,-0.671259842519685));
#1540=CARTESIAN_POINT('',(2.92125984251968,2.,-0.1875));
#1541=CARTESIAN_POINT('',(2.5,2.,-0.671259842519685));
#1542=CARTESIAN_POINT('Origin',(1.,0.,0.));
#1543=CARTESIAN_POINT('',(2.46062992125984,1.7244094488189,0.));
#1544=CARTESIAN_POINT('Origin',(2.625,1.7244094488189,0.));
#1545=CARTESIAN_POINT('',(1.21062992125984,1.7244094488189,0.));
#1546=CARTESIAN_POINT('Origin',(1.375,1.7244094488189,0.));
#1547=CARTESIAN_POINT('Origin',(1.,0.078740157480315,-0.671259842519685));
#1548=CARTESIAN_POINT('',(1.07874015748032,0.078740157480315,-0.75));
#1549=CARTESIAN_POINT('',(1.07874015748032,0.,-0.671259842519685));
#1550=CARTESIAN_POINT('',(1.07874015748032,0.078740157480315,-0.75));
#1551=CARTESIAN_POINT('Origin',(2.92125984251968,0.,-0.671259842519685));
#1552=CARTESIAN_POINT('',(3.,0.078740157480315,-0.671259842519685));
#1553=CARTESIAN_POINT('',(2.92125984251968,0.078740157480315,-0.75));
#1554=CARTESIAN_POINT('',(3.,0.078740157480315,-0.671259842519685));
#1555=CARTESIAN_POINT('',(2.92125984251968,0.,-0.671259842519685));
#1556=CARTESIAN_POINT('',(2.92125984251968,0.,-0.671259842519685));
#1557=CARTESIAN_POINT('',(2.92125984251968,0.078740157480315,-0.75));
#1558=CARTESIAN_POINT('Origin',(2.96062992125984,0.0393700787401575,-0.1875));
#1559=CARTESIAN_POINT('',(2.92125984251968,0.,-0.1875));
#1560=CARTESIAN_POINT('',(3.,0.078740157480315,-0.1875));
#1561=CARTESIAN_POINT('Origin',(2.5,0.0393700787401575,-0.710629921259842));
#1562=CARTESIAN_POINT('',(2.5,0.078740157480315,-0.75));
#1563=CARTESIAN_POINT('',(2.5,0.,-0.671259842519685));
#1564=CARTESIAN_POINT('Origin',(1.,1.92125984251968,-0.671259842519685));
#1565=CARTESIAN_POINT('',(1.07874015748032,1.92125984251968,-0.75));
#1566=CARTESIAN_POINT('',(1.07874015748032,1.92125984251968,-0.75));
#1567=CARTESIAN_POINT('',(1.,1.92125984251968,-0.671259842519685));
#1568=CARTESIAN_POINT('Origin',(1.03937007874016,0.,-0.710629921259842));
#1569=CARTESIAN_POINT('',(1.07874015748032,0.,-0.75));
#1570=CARTESIAN_POINT('Origin',(2.92125984251968,1.92125984251968,-0.75));
#1571=CARTESIAN_POINT('',(3.,1.92125984251968,-0.671259842519685));
#1572=CARTESIAN_POINT('',(3.,1.92125984251968,-0.671259842519685));
#1573=CARTESIAN_POINT('',(2.92125984251968,1.92125984251968,-0.75));
#1574=CARTESIAN_POINT('',(2.92125984251968,1.92125984251968,-0.75));
#1575=CARTESIAN_POINT('',(2.92125984251968,2.,-0.671259842519685));
#1576=CARTESIAN_POINT('Origin',(2.96062992125984,0.,-0.710629921259842));
#1577=CARTESIAN_POINT('',(3.,0.,-0.671259842519685));
#1578=CARTESIAN_POINT('',(2.92125984251968,0.,-0.75));
#1579=CARTESIAN_POINT('Origin',(2.5,1.96062992125984,-0.710629921259842));
#1580=CARTESIAN_POINT('',(2.5,1.92125984251968,-0.75));
#1581=CARTESIAN_POINT('Origin',(2.96062992125984,1.96062992125984,-0.1875));
#1582=CARTESIAN_POINT('',(3.,1.92125984251968,-0.1875));
#1583=CARTESIAN_POINT('Origin',(3.,0.,0.));
#1584=CARTESIAN_POINT('Origin',(3.,0.,-0.75));
#1585=CARTESIAN_POINT('Origin',(1.375,1.7244094488189,-0.31496062992126));
#1586=CARTESIAN_POINT('',(1.21062992125984,1.7244094488189,-0.31496062992126));
#1587=CARTESIAN_POINT('Origin',(1.375,1.7244094488189,-0.31496062992126));
#1588=CARTESIAN_POINT('Origin',(1.375,1.7244094488189,0.));
#1589=CARTESIAN_POINT('',(1.21062992125984,1.7244094488189,0.));
#1590=CARTESIAN_POINT('Origin',(2.625,1.7244094488189,-0.31496062992126));
#1591=CARTESIAN_POINT('',(2.46062992125984,1.7244094488189,-0.31496062992126));
#1592=CARTESIAN_POINT('Origin',(2.625,1.7244094488189,-0.31496062992126));
#1593=CARTESIAN_POINT('Origin',(2.625,1.7244094488189,0.));
#1594=CARTESIAN_POINT('',(2.46062992125984,1.7244094488189,0.));
#1595=CARTESIAN_POINT('Origin',(2.,0.,-0.375));
#1596=CARTESIAN_POINT('',(0.,0.,0.));
#1597=CARTESIAN_POINT('',(0.,0.,0.));
#1598=UNCERTAINTY_MEASURE_WITH_UNIT(LENGTH_MEASURE(0.000393700787401575),
#1607,'DISTANCE_ACCURACY_VALUE',
'Maximum model space distance between geometric entities at asserted c
onnectivities');
#1599=UNCERTAINTY_MEASURE_WITH_UNIT(LENGTH_MEASURE(0.000393700787401575),
#1607,'DISTANCE_ACCURACY_VALUE',
'Maximum model space distance between geometric entities at asserted c
onnectivities');
#1600=UNCERTAINTY_MEASURE_WITH_UNIT(LENGTH_MEASURE(0.000393700787401575),
#1607,'DISTANCE_ACCURACY_VALUE',
'Maximum model space distance between geometric entities at asserted c
onnectivities');
#1601=UNCERTAINTY_MEASURE_WITH_UNIT(LENGTH_MEASURE(0.000393700787401575),
#1607,'DISTANCE_ACCURACY_VALUE',
'Maximum model space distance between geometric entities at asserted c
onnectivities');
#1602=(
GEOMETRIC_REPRESENTATION_CONTEXT(3)
GLOBAL_UNCERTAINTY_ASSIGNED_CONTEXT((#1598))
GLOBAL_UNIT_ASSIGNED_CONTEXT((#1607,#1611,#1612))
REPRESENTATION_CONTEXT('','3D')
);
#1603=(
GEOMETRIC_REPRESENTATION_CONTEXT(3)
GLOBAL_UNCERTAINTY_ASSIGNED_CONTEXT((#1599))
GLOBAL_UNIT_ASSIGNED_CONTEXT((#1607,#1611,#1612))
REPRESENTATION_CONTEXT('','3D')
);
#1604=(
GEOMETRIC_REPRESENTATION_CONTEXT(3)
GLOBAL_UNCERTAINTY_ASSIGNED_CONTEXT((#1600))
GLOBAL_UNIT_ASSIGNED_CONTEXT((#1607,#1611,#1612))
REPRESENTATION_CONTEXT('','3D')
);
#1605=(
GEOMETRIC_REPRESENTATION_CONTEXT(3)
GLOBAL_UNCERTAINTY_ASSIGNED_CONTEXT((#1601))
GLOBAL_UNIT_ASSIGNED_CONTEXT((#1607,#1611,#1612))
REPRESENTATION_CONTEXT('','3D')
);
#1606=DIMENSIONAL_EXPONENTS(1.,0.,0.,0.,0.,0.,0.);
#1607=(
CONVERSION_BASED_UNIT('inch',#1610)
LENGTH_UNIT()
NAMED_UNIT(#1606)
);
#1608=(
LENGTH_UNIT()
NAMED_UNIT(*)
SI_UNIT(.MILLI.,.METRE.)
);
#1609=(
LENGTH_UNIT()
NAMED_UNIT(*)
SI_UNIT($,.METRE.)
);
#1610=LENGTH_MEASURE_WITH_UNIT(LENGTH_MEASURE(25.4),#1608);
#1611=(
NAMED_UNIT(*)
PLANE_ANGLE_UNIT()
SI_UNIT($,.RADIAN.)
);
#1612=(
NAMED_UNIT(*)
SI_UNIT($,.STERADIAN.)
SOLID_ANGLE_UNIT()
);
#1613=SHAPE_DEFINITION_REPRESENTATION(#1616,#1621);
#1614=SHAPE_DEFINITION_REPRESENTATION(#1617,#1622);
#1615=SHAPE_DEFINITION_REPRESENTATION(#1618,#1623);
#1616=PRODUCT_DEFINITION_SHAPE('',$,#1625);
#1617=PRODUCT_DEFINITION_SHAPE('',$,#1626);
#1618=PRODUCT_DEFINITION_SHAPE('',$,#1627);
#1619=PRODUCT_DEFINITION_SHAPE($,$,#17);
#1620=PRODUCT_DEFINITION_SHAPE($,$,#18);
#1621=SHAPE_REPRESENTATION('',(#986,#1065,#1066),#1602);
#1622=SHAPE_REPRESENTATION('',(#987),#1603);
#1623=SHAPE_REPRESENTATION('',(#1026),#1604);
#1624=PRODUCT_DEFINITION_CONTEXT('part definition',#1635,'design');
#1625=PRODUCT_DEFINITION('JE_RingBox','JE_RingBox v4',#1628,#1624);
#1626=PRODUCT_DEFINITION('RingBox_Top','RingBox_Top',#1629,#1624);
#1627=PRODUCT_DEFINITION('RingBox_Bottom','RingBox_Bottom',#1630,#1624);
#1628=PRODUCT_DEFINITION_FORMATION('',$,#1637);
#1629=PRODUCT_DEFINITION_FORMATION('',$,#1638);
#1630=PRODUCT_DEFINITION_FORMATION('',$,#1639);
#1631=PRODUCT_RELATED_PRODUCT_CATEGORY('JE_RingBox v4','JE_RingBox v4',
(#1637));
#1632=PRODUCT_RELATED_PRODUCT_CATEGORY('RingBox_Top','RingBox_Top',(#1638));
#1633=PRODUCT_RELATED_PRODUCT_CATEGORY('RingBox_Bottom',
'RingBox_Bottom',(#1639));
#1634=APPLICATION_PROTOCOL_DEFINITION('international standard',
'automotive_design',2009,#1635);
#1635=APPLICATION_CONTEXT(
'Core Data for Automotive Mechanical Design Process');
#1636=PRODUCT_CONTEXT('part definition',#1635,'mechanical');
#1637=PRODUCT('JE_RingBox','JE_RingBox v4',$,(#1636));
#1638=PRODUCT('RingBox_Top','RingBox_Top',$,(#1636));
#1639=PRODUCT('RingBox_Bottom','RingBox_Bottom',$,(#1636));
#1640=PRESENTATION_STYLE_ASSIGNMENT((#1641));
#1641=SURFACE_STYLE_USAGE(.BOTH.,#1642);
#1642=SURFACE_SIDE_STYLE('',(#1643));
#1643=SURFACE_STYLE_FILL_AREA(#1644);
#1644=FILL_AREA_STYLE('Steel - Satin',(#1645));
#1645=FILL_AREA_STYLE_COLOUR('Steel - Satin',#1646);
#1646=COLOUR_RGB('Steel - Satin',0.627450980392157,0.627450980392157,0.627450980392157);
ENDSEC;
END-ISO-10303-21;
